<svg width="49px" height="11px" viewBox="0 0 49 11" version="1.1" xmlns="http://www.w3.org/2000/svg">
    <g id="Page-1" stroke="none" stroke-width="1" fill="none" fill-rule="evenodd">
        <g id="Galatea_Result" transform="translate(-284.000000, -808.000000)" fill="#404B63" fill-rule="nonzero">
            <g id="Footer" transform="translate(225.000000, 806.000000)">
                <g id="Golem_LogoTaglineV2_Positive_RGB" transform="translate(59.000000, 2.000000)">
                    <path d="M4.13631138,1.45204964 L3.17063557,2.4449041 C2.84069634,2.20496427 2.44235507,2.06430989 2.00780095,2.06430989 C0.901297422,2.06430989 0,2.99097405 0,4.12861978 C0,5.15043249 0.724256857,5.99849568 1.66981442,6.15983452 L1.66981442,6.90447537 C0.724256857,7.06995111 0,7.91801429 0,8.93569011 C0,10.0733358 0.901297422,11 2.00780095,11 C3.11430448,11 4.01560191,10.0733358 4.01560191,8.93569011 C4.01560191,7.9138774 3.29134505,7.06581422 2.34578749,6.90447537 L2.34578749,6.15983452 C3.29134505,5.99435878 4.01560191,5.1462956 4.01560191,4.12861978 C4.01560191,3.68183528 3.87879783,3.27228281 3.64542618,2.93305754 L4.61110199,1.94020308 L4.13631138,1.45204964 Z M3.34365249,8.939827 C3.34365249,9.69687853 2.74412876,10.3132757 2.00780095,10.3132757 C1.27147315,10.3132757 0.671949417,9.69687853 0.671949417,8.939827 C0.671949417,8.18277548 1.27147315,7.56635764 2.00780095,7.56635764 C2.74412876,7.56224144 3.34365249,8.17863859 3.34365249,8.939827 Z M2.00780095,5.50206845 C1.27147315,5.50206845 0.671949417,4.88567131 0.671949417,4.12861978 C0.671949417,3.37156826 1.27147315,2.75517112 2.00780095,2.75517112 C2.74412876,2.75517112 3.34365249,3.37156826 3.34365249,4.12861978 C3.34365249,4.88567131 2.74412876,5.50206845 2.00780095,5.50206845 Z M33.62966,3.36329447 C33.573329,3.36329447 33.5330925,3.35088379 33.5089506,3.32606243 C33.4848087,3.30124107 33.4727377,3.26400903 33.4727377,3.2143663 L33.4727377,2.82549831 L33.8067006,2.82549831 L33.8067006,2.5110944 L33.4727377,2.5110944 L33.4727377,2.20910117 L33.0502546,2.20910117 L33.0502546,2.5110944 L32.8370011,2.5110944 L32.8370011,2.82549831 L33.0502546,2.82549831 L33.0502546,3.24332456 C33.0502546,3.39638962 33.0864674,3.50808575 33.1588931,3.57841294 C33.2313188,3.64874013 33.3480046,3.68183528 33.5049269,3.68183528 C33.62966,3.68183528 33.7463459,3.6652877 33.8509607,3.62805566 L33.7986533,3.33019932 C33.7342749,3.35502068 33.6779438,3.36329447 33.62966,3.36329447 Z M32.0564132,2.47799925 C31.8713253,2.47799925 31.7304976,2.5069575 31.6258827,2.56487401 C31.5212679,2.62279052 31.4568895,2.71380218 31.4327476,2.83377209 L31.8109706,2.86273035 C31.8190179,2.8296352 31.8471834,2.80481384 31.8874199,2.78412937 C31.9276564,2.7634449 31.9839875,2.75517112 32.0483659,2.75517112 C32.1127443,2.75517112 32.1650517,2.7675818 32.2012646,2.79240316 C32.2374774,2.81722452 32.253572,2.85445656 32.253572,2.89996239 L32.253572,2.94960511 L32.0081294,2.9578789 C31.7868287,2.9620158 31.6218591,2.99924784 31.5172442,3.06130124 C31.4126293,3.12335464 31.3603219,3.2185032 31.3603219,3.34261 C31.3603219,3.45844302 31.4005584,3.54531779 31.4810314,3.6032343 C31.5615044,3.6652877 31.6781902,3.69424596 31.8270652,3.69424596 C31.9196091,3.69424596 32.0000821,3.68183528 32.0725078,3.65287702 C32.1409098,3.62391877 32.2093119,3.58254983 32.265643,3.52049643 L32.265643,3.66115081 L32.6398423,3.66115081 L32.6398423,2.94133133 C32.643866,2.63106431 32.4467072,2.47799925 32.0564132,2.47799925 Z M32.253572,3.21022941 C32.253572,3.26400903 32.2294301,3.30951486 32.18517,3.35088379 C32.1610281,3.37156826 32.1248152,3.38811583 32.0845787,3.40052651 C32.0443423,3.41293719 32.0000821,3.41707409 31.9517983,3.41707409 C31.8190179,3.41707409 31.7546395,3.38397894 31.7546395,3.31365175 C31.7546395,3.26814592 31.7747578,3.23505077 31.8190179,3.2143663 C31.863278,3.19368184 31.9316801,3.18127115 32.0322713,3.18127115 L32.253572,3.17299737 L32.253572,3.21022941 Z M10.6988832,6.08537044 L11.366809,6.08537044 L11.366809,0 L10.6988832,0 L10.6988832,6.08537044 Z M14.7466743,2.06430989 C14.1793398,2.06430989 13.6643127,2.27942836 13.294137,2.66829635 C12.9360322,3.04475367 12.7388734,3.56600226 12.7388734,4.12861978 C12.7388734,4.6953742 12.9320085,5.2124859 13.2780424,5.58480632 C13.6482181,5.9819481 14.1551979,6.18879278 14.7426507,6.18879278 C15.3783873,6.18879278 16.0342421,5.87025197 16.3802759,5.39864611 L15.8451306,4.98495675 C15.6238299,5.28694998 15.1691575,5.50206845 14.7426507,5.50206845 C14.0465594,5.50206845 13.5516505,5.0842422 13.430941,4.43474991 L16.6860732,4.43474991 L16.6860732,4.09138774 C16.6860732,3.54531779 16.4969617,3.03647988 16.1549516,2.66415946 C15.7968468,2.27529146 15.2979143,2.06430989 14.7466743,2.06430989 Z M13.4510593,3.74802557 C13.5959107,3.14403911 14.0867959,2.75103422 14.7466743,2.75103422 C15.3824109,2.75103422 15.8531779,3.14817601 15.9819346,3.74802557 L13.4510593,3.74802557 Z M7.35523074,2.06430989 C6.24872721,2.06430989 5.34742979,2.99097405 5.34742979,4.12861978 C5.34742979,5.26626551 6.24872721,6.19292967 7.35523074,6.19292967 C8.46173427,6.19292967 9.3630317,5.26626551 9.3630317,4.12861978 C9.3630317,2.98683716 8.46173427,2.06430989 7.35523074,2.06430989 Z M7.35523074,5.50206845 C6.61890294,5.50206845 6.01937921,4.88567131 6.01937921,4.12861978 C6.01937921,3.37156826 6.61890294,2.75517112 7.35523074,2.75517112 C8.09155855,2.75517112 8.69110241,3.37156826 8.69110241,4.12861978 C8.69510593,4.88567131 8.0955822,5.50206845 7.35523074,5.50206845 Z M27.9321728,3.27228281 C27.871818,3.31365175 27.791345,3.33433622 27.6867302,3.33433622 C27.5539497,3.33433622 27.4493349,3.29296728 27.3769092,3.2143663 C27.3044835,3.13576533 27.2682707,3.0240692 27.2682707,2.87927792 C27.2682707,2.73862354 27.3044835,2.62692742 27.3769092,2.54832644 C27.4493349,2.46972546 27.5499261,2.42835653 27.6786829,2.42835653 C27.7712268,2.42835653 27.8476761,2.44904099 27.8999836,2.48627303 C27.9563147,2.52350508 27.9965512,2.58555848 28.0206931,2.66829635 L28.4673181,2.61451674 C28.423058,2.42835653 28.3345377,2.29183904 28.2057809,2.19669049 C28.0730005,2.10567883 27.8999836,2.060173 27.6786829,2.060173 C27.493595,2.060173 27.3366727,2.09326815 27.2079159,2.16359534 C27.0751355,2.23392253 26.9745443,2.32907108 26.9061422,2.45317789 C26.8377402,2.57728469 26.8015273,2.72207597 26.8015273,2.88341482 C26.8015273,3.05302745 26.8377402,3.20195562 26.9101659,3.32606243 C26.9825916,3.45016924 27.0831828,3.54531779 27.2159632,3.60737119 C27.3487436,3.6694246 27.5016423,3.70251974 27.6827065,3.70251974 C27.9241255,3.70251974 28.113237,3.64874013 28.2580884,3.5411809 C28.4029397,3.43362166 28.4834127,3.2805566 28.503531,3.0861226 L28.0528822,3.0861226 C28.0287404,3.16886047 27.9885039,3.23091388 27.9321728,3.27228281 Z M18.054114,6.08537044 L18.7220397,6.08537044 L18.7220397,2.85445656 L20.0578913,2.85445656 L20.0578913,6.08537044 L20.725817,6.08537044 L20.725817,2.85445656 L22.0616686,2.85445656 L22.0616686,6.08537044 L22.7295944,6.08537044 L22.7295944,2.16773223 L18.054114,2.16773223 L18.054114,6.08537044 Z M29.1714567,2.67243325 L29.1714567,2.5110944 L28.7570209,2.5110944 L28.7570209,3.66115081 L29.179504,3.66115081 L29.179504,3.06543813 C29.179504,3.03647988 29.1875513,3.00338473 29.1996223,2.97442648 C29.2157169,2.94546822 29.2358351,2.92064686 29.259977,2.8958255 C29.3203317,2.84618278 29.4048284,2.82136141 29.5054196,2.82136141 C29.5496798,2.82136141 29.5939399,2.82549831 29.6422237,2.83377209 L29.6905075,2.49868372 C29.6462473,2.49040993 29.6019872,2.48627303 29.557727,2.48627303 C29.4048284,2.49040993 29.2760716,2.55246333 29.1714567,2.67243325 Z M30.4912137,2.47799925 C30.3503859,2.47799925 30.2296765,2.50282061 30.1290852,2.55660023 C30.028494,2.61037984 29.948021,2.68484393 29.8957136,2.77999248 C29.8434061,2.87514103 29.8152406,2.98270026 29.8152406,3.10267018 C29.8152406,3.29296728 29.8715717,3.43775856 29.9882575,3.54531779 C30.1049433,3.64874013 30.269913,3.70251974 30.4791427,3.70251974 C30.8533421,3.70251974 31.0706191,3.56600226 31.1269502,3.29710417 L30.7366563,3.29710417 C30.7084907,3.37570515 30.6239941,3.41293719 30.4912137,3.41293719 C30.406717,3.41293719 30.3423386,3.39225273 30.2940549,3.35502068 C30.2457711,3.31778864 30.2176055,3.26400903 30.2135819,3.19368184 L31.1430448,3.19368184 L31.1430448,3.08198571 C31.1430448,2.8916886 31.0867137,2.74276044 30.9740516,2.6393381 C30.8573657,2.52764197 30.7004434,2.47799925 30.4912137,2.47799925 Z M30.2216292,2.9578789 C30.2296765,2.89996239 30.257842,2.85031967 30.3061258,2.81722452 C30.3544096,2.77999248 30.4147643,2.7634449 30.4831664,2.7634449 C30.6521596,2.7634449 30.7406799,2.8296352 30.7487272,2.9620158 L30.2216292,2.9620158 L30.2216292,2.9578789 Z M45.2580062,3.13162843 C45.2580062,3.16058669 45.2499589,3.18954494 45.237888,3.2185032 C45.225817,3.24746145 45.2056988,3.27228281 45.1855806,3.29296728 C45.1292495,3.34261 45.0648711,3.37156826 45.0004927,3.37156826 C44.940138,3.37156826 44.8958778,3.35502068 44.8636886,3.32606243 C44.8314994,3.29710417 44.8194285,3.24746145 44.8194285,3.18127115 L44.8194285,2.51523129 L44.3969453,2.51523129 L44.3969453,3.26400903 C44.3969453,3.40052651 44.4371818,3.50808575 44.5136311,3.58668672 C44.5900805,3.6652877 44.698719,3.70251974 44.8355231,3.70251974 C45.0045163,3.70251974 45.1453441,3.63632945 45.2660535,3.50808575 L45.2660535,3.6694246 L45.6804894,3.6694246 L45.6804894,2.51936818 L45.2580062,2.51936818 L45.2580062,3.13162843 L45.2580062,3.13162843 Z M46.7105436,3.36329447 C46.6542125,3.36329447 46.613976,3.35088379 46.5898341,3.32606243 C46.5656922,3.30124107 46.5536213,3.26400903 46.5536213,3.2143663 L46.5536213,2.82549831 L46.8875842,2.82549831 L46.8875842,2.5110944 L46.5536213,2.5110944 L46.5536213,2.20910117 L46.1311381,2.20910117 L46.1311381,2.5110944 L45.9178847,2.5110944 L45.9178847,2.82549831 L46.1311381,2.82549831 L46.1311381,3.24332456 C46.1311381,3.39638962 46.167351,3.50808575 46.2397766,3.57841294 C46.3122023,3.64874013 46.4288882,3.68183528 46.5858105,3.68183528 C46.7105436,3.68183528 46.8272294,3.6652877 46.9318443,3.62805566 L46.8795369,3.33019932 C46.8151585,3.35502068 46.7588274,3.36329447 46.7105436,3.36329447 Z M46.316226,5.13802181 L46.316226,4.97668296 L45.9017901,4.97668296 L45.9017901,6.12673938 L46.3242733,6.12673938 L46.3242733,5.5310267 C46.3242733,5.50206845 46.3323206,5.4689733 46.3443915,5.44001504 C46.3604861,5.41105679 46.3806044,5.38623543 46.4047463,5.36141407 C46.465101,5.31177134 46.5495976,5.28694998 46.6501889,5.28694998 C46.694449,5.28694998 46.7387091,5.29108687 46.7869929,5.29936066 L46.8352767,4.96427228 C46.7910166,4.9559985 46.7467564,4.9518616 46.7024963,4.9518616 C46.5495976,4.9559985 46.4208409,5.0180519 46.316226,5.13802181 Z M47.8774019,4.94358781 C47.704385,4.94358781 47.5555099,5.00977811 47.4388241,5.13802181 L47.4388241,4.97668296 L47.0243882,4.97668296 L47.0243882,6.12673938 L47.4468714,6.12673938 L47.4468714,5.50620534 C47.4468714,5.44828883 47.4710133,5.39450921 47.5192971,5.34900338 C47.543439,5.32418202 47.5756282,5.30349756 47.6078174,5.29108687 C47.6400066,5.27867619 47.6762194,5.27040241 47.7124323,5.27040241 C47.7768106,5.27040241 47.8250944,5.28694998 47.8572836,5.31590824 C47.8894728,5.34486649 47.9015438,5.39450921 47.9015438,5.4648364 L47.9015438,6.13087627 L48.3240269,6.13087627 L48.3240269,5.38209853 C48.3240269,5.24144415 48.2837904,5.13388492 48.2073411,5.05942083 C48.1308918,4.98495675 48.0182296,4.94358781 47.8774019,4.94358781 Z M48.6016587,3.22677698 L48.6016587,3.66115081 L49,3.66115081 L49,3.22677698 L48.6016587,3.22677698 Z M34.6999507,2.47799925 C34.559123,2.47799925 34.4384135,2.50282061 34.3378223,2.55660023 C34.2372311,2.61037984 34.1567581,2.68484393 34.1044506,2.77999248 C34.0521432,2.87514103 34.0239777,2.98270026 34.0239777,3.10267018 C34.0239777,3.29296728 34.0803088,3.43775856 34.1969946,3.54531779 C34.3136804,3.64874013 34.47865,3.70251974 34.6878798,3.70251974 C35.0620792,3.70251974 35.2793562,3.56600226 35.3356873,3.29710417 L34.9453933,3.29710417 C34.9172278,3.37570515 34.8327312,3.41293719 34.6999507,3.41293719 C34.6154541,3.41293719 34.5510757,3.39225273 34.5027919,3.35502068 C34.4545081,3.31778864 34.4263426,3.26400903 34.4223189,3.19368184 L35.3517819,3.19368184 L35.3517819,3.08198571 C35.3517819,2.8916886 35.2954508,2.74276044 35.1827886,2.6393381 C35.0661028,2.52764197 34.9051568,2.47799925 34.6999507,2.47799925 Z M34.4303662,2.9578789 C34.4384135,2.89996239 34.4665791,2.85031967 34.5148629,2.81722452 C34.5631467,2.77999248 34.6235014,2.7634449 34.6919034,2.7634449 C34.8608967,2.7634449 34.949417,2.8296352 34.9574643,2.9620158 L34.4303662,2.9620158 L34.4303662,2.9578789 Z M48.6016587,6.12673938 L49,6.12673938 L49,5.69236555 L48.6016587,5.69236555 L48.6016587,6.12673938 Z M47.7808343,2.47799925 C47.6400066,2.47799925 47.5192971,2.50282061 47.4187059,2.55660023 C47.3181146,2.61037984 47.2376416,2.68484393 47.1853342,2.77999248 C47.1330268,2.87514103 47.1048612,2.98270026 47.1048612,3.10267018 C47.1048612,3.29296728 47.1611923,3.43775856 47.2778781,3.54531779 C47.394564,3.64874013 47.5595336,3.70251974 47.7687633,3.70251974 C48.1429627,3.70251974 48.3602398,3.56600226 48.4165709,3.29710417 L48.0262769,3.29710417 C47.9981113,3.37570515 47.9136147,3.41293719 47.7808343,3.41293719 C47.6963377,3.41293719 47.6319593,3.39225273 47.5836755,3.35502068 C47.5353917,3.31778864 47.5072261,3.26400903 47.5032025,3.19368184 L48.4326655,3.19368184 L48.4326655,3.08198571 C48.4326655,2.8916886 48.3763344,2.74276044 48.2636722,2.6393381 C48.1469864,2.52764197 47.9860404,2.47799925 47.7808343,2.47799925 Z M47.5112498,2.9578789 C47.5192971,2.89996239 47.5474626,2.85031967 47.5957464,2.81722452 C47.6440302,2.77999248 47.704385,2.7634449 47.772787,2.7634449 C47.9417803,2.7634449 48.0303005,2.8296352 48.0383478,2.9620158 L47.5112498,2.9620158 L47.5112498,2.9578789 Z M38.091887,3.27228281 C38.0315323,3.31365175 37.9510593,3.33433622 37.8464444,3.33433622 C37.713664,3.33433622 37.6090491,3.29296728 37.5366234,3.2143663 C37.4641977,3.13576533 37.4279849,3.0240692 37.4279849,2.87927792 C37.4279849,2.73862354 37.4641977,2.62692742 37.5366234,2.54832644 C37.6090491,2.46972546 37.7096403,2.42835653 37.8383971,2.42835653 C37.930941,2.42835653 38.0073904,2.44904099 38.0596978,2.48627303 C38.1160289,2.52350508 38.1562654,2.58555848 38.1804073,2.66829635 L38.6270324,2.61451674 C38.5827722,2.42835653 38.4942519,2.29183904 38.3654952,2.19669049 C38.2327147,2.10567883 38.0596978,2.060173 37.8383971,2.060173 C37.6533092,2.060173 37.4963869,2.09326815 37.3676302,2.16359534 C37.2348497,2.23392253 37.1342585,2.32907108 37.0658565,2.45317789 C36.9974544,2.57728469 36.9612416,2.72207597 36.9612416,2.88341482 C36.9612416,3.05302745 36.9974544,3.20195562 37.0698801,3.32606243 C37.1423058,3.45016924 37.242897,3.54531779 37.3756775,3.60737119 C37.5044342,3.67356149 37.6613565,3.70251974 37.8424208,3.70251974 C38.0838397,3.70251974 38.2729512,3.64874013 38.4178026,3.5411809 C38.562654,3.43362166 38.643127,3.2805566 38.6632452,3.0861226 L38.2125965,3.0861226 C38.1884546,3.16886047 38.1482181,3.23091388 38.091887,3.27228281 Z M40.0272623,2.6352012 C39.9065528,2.52764197 39.7375595,2.47799925 39.5202825,2.47799925 C39.3030054,2.47799925 39.1299885,2.53177886 39.0052554,2.64347499 C38.8805223,2.75517112 38.8161439,2.90409929 38.8161439,3.09439639 C38.8161439,3.28469349 38.8764986,3.43362166 38.9972081,3.5411809 C39.1179176,3.64874013 39.2869108,3.69838285 39.5041879,3.69838285 C39.7214649,3.69838285 39.8944819,3.64460323 40.019215,3.53290711 C40.1439481,3.42121098 40.2083265,3.27228281 40.2083265,3.08198571 C40.2083265,2.8916886 40.1479718,2.74276044 40.0272623,2.6352012 Z M39.709394,3.30124107 C39.6651338,3.35088379 39.5967318,3.37570515 39.5122352,3.37570515 C39.4237149,3.37570515 39.3593365,3.35088379 39.3150764,3.30124107 C39.2708162,3.25159835 39.2466743,3.18127115 39.2466743,3.0861226 C39.2466743,2.99097405 39.2708162,2.92064686 39.3150764,2.87100414 C39.3593365,2.82136141 39.4277385,2.79654005 39.5122352,2.79654005 C39.6007555,2.79654005 39.6651338,2.82136141 39.709394,2.87100414 C39.7536541,2.92064686 39.777796,2.99097405 39.777796,3.0861226 C39.7818197,3.18127115 39.7576778,3.25159835 39.709394,3.30124107 Z M35.5207752,3.66115081 L35.9191164,3.66115081 L35.9191164,3.22677698 L35.5207752,3.22677698 L35.5207752,3.66115081 Z M45.0326819,4.94358781 C44.847594,4.94358781 44.7067663,4.97254607 44.6021514,5.03046258 C44.4975365,5.08837909 44.4331582,5.17939075 44.4090163,5.29936066 L44.7872393,5.32831892 C44.7952866,5.29522377 44.8234521,5.27040241 44.8636886,5.24971794 C44.9039251,5.22903347 44.9602562,5.22075968 45.0246346,5.22075968 C45.089013,5.22075968 45.1413204,5.23317036 45.1775333,5.25799173 C45.2137461,5.28281309 45.2298407,5.32004513 45.2298407,5.36555096 L45.2298407,5.41519368 L44.9843981,5.42346747 C44.7630974,5.42760436 44.5981278,5.4648364 44.4935129,5.52688981 C44.388898,5.58894321 44.3365906,5.68409176 44.3365906,5.80819857 C44.3365906,5.92403159 44.3768271,6.01090636 44.4573,6.06882287 C44.537773,6.13087627 44.6544589,6.15983452 44.8033339,6.15983452 C44.8958778,6.15983452 44.9763508,6.14742384 45.0487765,6.11846559 C45.1171785,6.08950733 45.1855806,6.0481384 45.2419116,5.98608499 L45.2419116,6.12673938 L45.616111,6.12673938 L45.616111,5.40691989 C45.6201347,5.09665288 45.4229759,4.94358781 45.0326819,4.94358781 Z M45.2298407,5.67581798 C45.2298407,5.72959759 45.2056988,5.77510342 45.1614387,5.81647236 C45.1372968,5.83715683 45.1010839,5.8537044 45.0608474,5.86611508 C45.0206109,5.87852576 44.9763508,5.88266266 44.928067,5.88266266 C44.7952866,5.88266266 44.7309082,5.84956751 44.7309082,5.77924032 C44.7309082,5.73373449 44.7510264,5.70063934 44.7952866,5.67995487 C44.8395467,5.6592704 44.9079488,5.64685972 45.00854,5.64685972 L45.2298407,5.63858593 L45.2298407,5.67581798 L45.2298407,5.67581798 Z M43.230087,5.50620534 L44.0710297,5.50620534 L44.0710297,5.15456939 L43.230087,5.15456939 L43.230087,4.91462956 L44.1152899,4.91462956 L44.1152899,4.56299361 L42.7874856,4.56299361 L42.7874856,6.12673938 L44.1233372,6.12673938 L44.1675973,5.77510342 L43.230087,5.77510342 L43.230087,5.50620534 Z M42.0793234,2.47799925 C41.8942355,2.47799925 41.7493841,2.54832644 41.636722,2.68484393 C41.6045328,2.61865363 41.556249,2.56487401 41.4918706,2.53177886 C41.4274922,2.49868372 41.3550665,2.47799925 41.2665462,2.47799925 C41.1056003,2.47799925 40.9687962,2.54418954 40.8601577,2.67243325 L40.8601577,2.5110944 L40.4457218,2.5110944 L40.4457218,3.66115081 L40.868205,3.66115081 L40.868205,3.03234299 C40.868205,2.97442648 40.8883232,2.92064686 40.9325833,2.87927792 C40.9567252,2.85445656 40.9808671,2.83377209 41.0090327,2.82136141 C41.0371982,2.80895073 41.0693874,2.80067695 41.1015766,2.80067695 C41.1579077,2.80067695 41.1981442,2.81722452 41.2222861,2.84618278 C41.246428,2.87514103 41.2584989,2.92064686 41.2584989,2.98683716 L41.2584989,3.66115081 L41.6809821,3.66115081 L41.6809821,3.01993231 C41.6809821,2.96615269 41.7011003,2.92064686 41.7453605,2.87514103 C41.7936443,2.82549831 41.8499754,2.80481384 41.9143538,2.80481384 C41.9706848,2.80481384 42.0109213,2.82136141 42.0350632,2.85031967 C42.0592051,2.87927792 42.0712761,2.92478375 42.0712761,2.99097405 L42.0712761,3.6652877 L42.4937592,3.6652877 L42.4937592,2.91650997 C42.4937592,2.77999248 42.4575464,2.67243325 42.3851207,2.59383227 C42.312695,2.51523129 42.2121038,2.47799925 42.0793234,2.47799925 Z M43.2059451,3.537044 C43.2944654,3.64460323 43.4232222,3.69838285 43.5881918,3.69838285 C43.7048776,3.69838285 43.8094925,3.6694246 43.8980128,3.61564498 C43.9865331,3.56186536 44.0509115,3.48740128 44.0991953,3.39225273 C44.1474791,3.29710417 44.1675973,3.18954494 44.1675973,3.06957503 C44.1675973,2.94960511 44.1434554,2.84618278 44.0991953,2.75517112 C44.0509115,2.66415946 43.9865331,2.59383227 43.9060601,2.54832644 C43.8255871,2.50282061 43.7330432,2.47799925 43.632452,2.47799925 C43.4433404,2.47799925 43.2984891,2.54005265 43.1978978,2.66829635 L43.1978978,2.5110944 L42.783462,2.5110944 L42.783462,4.08725085 L43.2059451,4.08725085 L43.2059451,3.537044 L43.2059451,3.537044 Z M43.2019215,3.06130124 C43.2019215,2.98683716 43.2260634,2.92478375 43.2743472,2.87514103 C43.3266546,2.82136141 43.3950567,2.79654005 43.4755296,2.79654005 C43.5600263,2.79654005 43.6244047,2.82136141 43.6686648,2.87100414 C43.7129249,2.92064686 43.7370668,2.99097405 43.7370668,3.08198571 C43.7370668,3.17713426 43.7129249,3.25159835 43.6686648,3.30124107 C43.6244047,3.35088379 43.5560026,3.37570515 43.4674823,3.37570515 C43.3870094,3.37570515 43.3186073,3.35088379 43.2703235,3.30124107 C43.2220397,3.25159835 43.1978978,3.18540805 43.1978978,3.10267018 L43.1978978,3.06130124 L43.2019215,3.06130124 Z" id="Shape"></path>
                </g>
            </g>
        </g>
    </g>
</svg>
