<svg width="33px" height="30px" viewBox="0 0 33 30" version="1.1" xmlns="http://www.w3.org/2000/svg">
    <g id="Page-1" stroke="none" stroke-width="1" fill="none" fill-rule="evenodd" stroke-linecap="round" stroke-linejoin="round">
        <g id="Erigolem-homepage" transform="translate(-1055.000000, -45.000000)" fill-rule="nonzero" stroke-width="0.5">
            <g id="METAMASK_BUTTON" transform="translate(1020.000000, 34.000000)">
                <g id="MetaMask_Fox" transform="translate(36.000000, 12.000000)">
                    <polygon id="Path" stroke="#E2761B" fill="#E2761B" points="29.4560784 0 17.36 8.75296108 19.5968627 3.58883249"></polygon>
                    <g id="Group" transform="translate(0.255294, 0.000000)" fill="#E4761B" stroke="#E4761B">
                        <polygon id="Path" points="1.27647059 0 13.2752941 8.8358714 11.1478431 3.58883249"></polygon>
                        <polygon id="Path" points="24.8486275 20.2893401 21.6270588 25.0981387 28.52 26.9458545 30.5015686 20.3959391"></polygon>
                        <polygon id="Path" points="0 20.3959391 1.96941176 26.9458545 8.86235294 25.0981387 5.64078431 20.2893401"></polygon>
                        <polygon id="Path" points="8.47333333 12.1641286 6.55254902 14.9949239 13.3968627 15.2910321 13.1537255 8.12521151"></polygon>
                        <polygon id="Path" points="22.0039216 12.1641286 17.2627451 8.04230118 17.1047059 15.2910321 23.9368627 14.9949239"></polygon>
                        <polygon id="Path" points="8.86235294 25.0981387 12.9713725 23.143824 9.42156863 20.4433164"></polygon>
                        <polygon id="Path" points="17.5058824 23.143824 21.6270588 25.0981387 21.0556863 20.4433164"></polygon>
                    </g>
                    <g id="Group" transform="translate(9.117647, 23.143824)" fill="#D7C1B3" stroke="#D7C1B3">
                        <polygon id="Path" points="12.7647059 1.95431472 8.64352941 7.01325317e-15 8.97176471 2.61759729 8.93529412 3.71912014"></polygon>
                        <polygon id="Path" points="0 1.95431472 3.82941176 3.71912014 3.80509804 2.61759729 4.10901961 7.01325317e-15"></polygon>
                    </g>
                    <polygon id="Path" stroke="#233447" fill="#233447" points="13.0078431 18.714044 9.57960784 17.7309645 11.9988235 16.6531303"></polygon>
                    <polygon id="Path" stroke="#233447" fill="#233447" points="17.98 18.714044 18.9890196 16.6531303 21.4203922 17.7309645"></polygon>
                    <g id="Group" transform="translate(5.896078, 14.994924)" fill="#CD6116" stroke="#CD6116">
                        <polygon id="Path" points="3.22156863 10.1032149 3.80509804 5.29441624 0 5.40101523"></polygon>
                        <polygon id="Path" points="15.4027451 5.29441624 15.9862745 10.1032149 19.2078431 5.40101523"></polygon>
                        <polygon id="Path" points="18.2960784 7.01325317e-15 11.4639216 0.296108291 12.0960784 3.71912014 13.105098 1.65820643 15.5364706 2.73604061"></polygon>
                        <polygon id="Path" points="3.68352941 2.73604061 6.11490196 1.65820643 7.11176471 3.71912014 7.75607843 0.296108291 0.911764706 7.01325317e-15"></polygon>
                    </g>
                    <g id="Group" transform="translate(6.807843, 14.994924)" fill="#E4751F" stroke="#E4751F">
                        <polygon id="Path" points="0 0 2.86901961 5.44839255 2.77176471 2.73604061"></polygon>
                        <polygon id="Path" points="14.6247059 2.73604061 14.5031373 5.44839255 17.3843137 0"></polygon>
                        <polygon id="Path" points="6.84431373 0.296108291 6.2 3.71912014 7.00235294 7.75803723 7.18470588 2.43993232"></polygon>
                        <polygon id="Path" points="10.5521569 0.296108291 10.2239216 2.42808799 10.3698039 7.75803723 11.1843137 3.71912014"></polygon>
                    </g>
                    <polygon id="Path" stroke="#F6851B" fill="#F6851B" points="17.9921569 18.714044 17.1776471 22.7529611 17.7611765 23.143824 21.3109804 20.4433164 21.432549 17.7309645"></polygon>
                    <polygon id="Path" stroke="#F6851B" fill="#F6851B" points="9.57960784 17.7309645 9.67686275 20.4433164 13.2266667 23.143824 13.8101961 22.7529611 13.0078431 18.714044"></polygon>
                    <polygon id="Path" stroke="#C0AD9E" fill="#C0AD9E" points="18.0529412 26.8629442 18.0894118 25.7614213 17.7854902 25.500846 13.2023529 25.500846 12.9227451 25.7614213 12.9470588 26.8629442 9.11764706 25.0981387 10.454902 26.1641286 13.1658824 28 17.8219608 28 20.545098 26.1641286 21.8823529 25.0981387"></polygon>
                    <polygon id="Path" stroke="#161616" fill="#161616" points="17.7611765 23.143824 17.1776471 22.7529611 13.8101961 22.7529611 13.2266667 23.143824 12.9227451 25.7614213 13.2023529 25.500846 17.7854902 25.500846 18.0894118 25.7614213"></polygon>
                    <g id="Group" fill="#763D16" stroke="#763D16">
                        <polygon id="Path" points="29.9666667 9.321489 31 4.48900169 29.4560784 0 17.7611765 8.45685279 22.2592157 12.1641286 28.6172549 13.9763113 30.027451 12.3773266 29.4196078 11.9509306 30.3921569 11.0862944 29.6384314 10.5177665 30.6109804 9.79526227"></polygon>
                        <polygon id="Path" points="0 4.48900169 1.03333333 9.321489 0.376862745 9.79526227 1.34941176 10.5177665 0.607843137 11.0862944 1.58039216 11.9509306 0.97254902 12.3773266 2.37058824 13.9763113 8.72862745 12.1641286 13.2266667 8.45685279 1.53176471 0"></polygon>
                    </g>
                    <polygon id="Path" stroke="#F6851B" fill="#F6851B" points="28.6172549 13.9763113 22.2592157 12.1641286 24.1921569 14.9949239 21.3109804 20.4433164 25.1039216 20.3959391 30.7568627 20.3959391"></polygon>
                    <polygon id="Path" stroke="#F6851B" fill="#F6851B" points="8.72862745 12.1641286 2.37058824 13.9763113 0.255294118 20.3959391 5.89607843 20.3959391 9.67686275 20.4433164 6.80784314 14.9949239"></polygon>
                    <polygon id="Path" stroke="#F6851B" fill="#F6851B" points="17.36 15.2910321 17.7611765 8.45685279 19.6090196 3.58883249 11.4031373 3.58883249 13.2266667 8.45685279 13.6521569 15.2910321 13.7980392 17.4467005 13.8101961 22.7529611 17.1776471 22.7529611 17.2019608 17.4467005"></polygon>
                </g>
            </g>
        </g>
    </g>
</svg>
