<svg width="272px" height="158px" viewBox="0 0 272 158" version="1.1" xmlns="http://www.w3.org/2000/svg">
    <g id="Page-1" stroke="none" stroke-width="1" fill="none" fill-rule="evenodd">
        <g id="Erigolem-No-Node-Is-Running" transform="translate(-584.000000, -252.000000)" fill-rule="nonzero" stroke="#1722A2">
            <g id="ERROR-ICON" transform="translate(586.000000, 254.000000)">
                <path d="M166.375839,0 C197.170347,0 222.134228,24.9987439 222.134228,55.8362573 C222.134228,60.6144526 221.534877,65.2524666 220.407353,69.6790222 C222.149575,69.4582243 223.927359,69.3450292 225.731544,69.3450292 C249.075767,69.3450292 268,88.2956899 268,111.672515 C268,132.277214 253.297885,149.443255 233.82567,153.224754 L233.825503,154 L47.6644295,154 C21.340092,154 0,132.630106 0,106.269006 C0,79.9079057 21.340092,58.5380117 47.6644295,58.5380117 C53.3966196,58.5380117 58.8924759,59.5512897 63.9831246,61.4087361 C63.8959263,60.4638926 63.852349,59.5060482 63.852349,58.5380117 C63.852349,41.129738 77.9448626,27.0175439 95.3288591,27.0175439 C102.797097,27.0175439 109.65786,29.6220874 115.054759,33.97359 C123.549136,14.0013172 143.329676,0 166.375839,0 Z" id="Combined-Shape" stroke-width="2.7"></path>
                <line x1="86.497173" y1="76.1511993" x2="117.775697" y2="76.1730247" id="Path-7" stroke-width="3" stroke-linecap="round" transform="translate(102.136435, 76.162112) rotate(-315.000000) translate(-102.136435, -76.162112) "></line>
                <line x1="150.177007" y1="75.9969426" x2="181.455531" y2="76.018768" id="Path-7-Copy-2" stroke-width="3" stroke-linecap="round" transform="translate(165.816269, 76.007855) rotate(-315.000000) translate(-165.816269, -76.007855) "></line>
                <path d="M102.790472,60.627902 L102.811823,91.2264341 L102.790472,60.627902 Z" id="Path-7-Copy" stroke-width="3" stroke-linecap="round" transform="translate(102.801147, 75.927168) rotate(-315.000000) translate(-102.801147, -75.927168) "></path>
                <path d="M166.731357,61.2504415 L166.752708,91.8489737 L166.731357,61.2504415 Z" id="Path-7-Copy-3" stroke-width="3" stroke-linecap="round" transform="translate(166.742032, 76.549708) rotate(-315.000000) translate(-166.742032, -76.549708) "></path>
                <path d="M102.52349,129.950703 C109.687144,120.767193 121.525184,116.175439 138.03761,116.175439 C154.550035,116.175439 166.024975,120.354175 172.462429,128.711647" id="Path-8" stroke-width="3" stroke-linecap="round"></path>
            </g>
        </g>
    </g>
</svg>
