<svg width="588px" height="531px" viewBox="0 0 588 531" version="1.1" xmlns="http://www.w3.org/2000/svg" xmlns:xlink="http://www.w3.org/1999/xlink">
    <defs>
        <polygon id="path-1" points="0 531 587.159 531 587.159 0 0 0"></polygon>
    </defs>
    <g id="Page-1" stroke="none" stroke-width="1" fill="none" fill-rule="evenodd">
        <g id="Erigolem-homepage" transform="translate(-749.000000, -216.000000)">
            <g id="MAIN_IMG" transform="translate(749.000000, 216.000000)">
                <path d="M208.9713,35.8188 C232.2673,13.5688 259.2723,0.7968 288.0723,0.7968 C319.0883,0.7968 348.0363,15.5858 372.5123,41.1588" id="Stroke-1" stroke="#A2A3B9"></path>
                <path d="M78.2858,103.6978 C88.9118,89.9318 100.8608,77.2408 113.9618,65.8048" id="Stroke-3" stroke="#A2A3B9"></path>
                <path d="M312.317,500.8398 C305.056,519.4788 296.831,529.9958 288.101,529.9958 C278.281,529.9958 269.077,516.6458 261.193,493.4018" id="Stroke-5" stroke="#A2A3B9"></path>
                <path d="M329.7985,428.8301 C328.4925,437.1071 327.0915,444.9911 325.6005,452.4311" id="Stroke-7" stroke="#A2A3B9"></path>
                <path d="M325.7711,78.9551 C327.2541,86.4091 328.6411,94.3081 329.9391,102.6001 C329.9391,102.7331 329.9761,102.8601 329.9991,102.9931" id="Stroke-9" stroke="#A2A3B9"></path>
                <path d="M261.0221,37.6436 C268.9431,14.0806 278.2071,0.5596 288.1011,0.5596 C296.9571,0.5596 305.3001,11.3876 312.6361,30.5386" id="Stroke-11" stroke="#A2A3B9"></path>
                <path d="M246.2106,103.0005 L246.2706,102.6005 C248.0056,91.5265 249.9036,81.1505 251.9586,71.5835" id="Stroke-13" stroke="#A2A3B9"></path>
                <path d="M252.0924,459.5723 C250.0454,450.0933 248.1394,439.8063 246.4104,428.8223" id="Stroke-15" stroke="#A2A3B9"></path>
                <path d="M59.3063,132.0078 C63.7563,124.4278 68.5453,117.0928 73.6723,110.0018" id="Stroke-17" stroke="#A2A3B9"></path>
                <path d="M29.3346,209.0688 C30.8726,201.9928 32.6876,195.0238 34.7786,188.1608" id="Stroke-19" stroke="#A2A3B9"></path>
                <path d="M24.3141,241.9404 C25.0651,233.4164 26.2121,225.0104 27.7551,216.7234" id="Stroke-21" stroke="#A2A3B9"></path>
                <path d="M27.9186,315.0928 C26.2696,306.3928 25.0596,297.6138 24.2916,288.7928" id="Stroke-23" stroke="#A2A3B9"></path>
                <path d="M34.8307,343.0986 C32.7837,336.4236 31.0017,329.6366 29.4827,322.7396" id="Stroke-25" stroke="#A2A3B9"></path>
                <path d="M74.2809,421.8057 C68.9599,414.5307 64.0089,406.9897 59.4469,399.2147" id="Stroke-27" stroke="#A2A3B9"></path>
                <path d="M497.6715,427.8135 C488.5245,439.5925 478.4065,450.5855 467.4255,460.6775" id="Stroke-29" stroke="#A2A3B9"></path>
                <path d="M521.4791,391.3076 C515.7701,401.8676 509.3521,412.0266 502.2701,421.7166" id="Stroke-31" stroke="#A2A3B9"></path>
                <path d="M546.986,322.8057 C544.807,332.6817 542.061,342.4237 538.76,351.9847" id="Stroke-33" stroke="#A2A3B9"></path>
                <path d="M551.0729,299.2354 C550.3899,304.5904 549.5499,309.8984 548.5519,315.1594" id="Stroke-35" stroke="#A2A3B9"></path>
                <path d="M548.7291,216.7676 C549.7171,221.9596 550.5311,227.2036 551.1691,232.4986" id="Stroke-37" stroke="#A2A3B9"></path>
                <path d="M538.8717,179.2754 C542.2317,189.0584 545.0117,199.0314 547.1937,209.1434" id="Stroke-39" stroke="#A2A3B9"></path>
                <path d="M502.6852,109.8389 C509.6632,119.4319 515.9892,129.4819 521.6212,139.9219" id="Stroke-41" stroke="#A2A3B9"></path>
                <path d="M467.5817,70.4482 C478.6347,80.6242 488.8077,91.7172 497.9907,103.6092" id="Stroke-43" stroke="#A2A3B9"></path>
                <path d="M216.6324,476.8906 C216.6244,490.7606 205.3744,501.9976 191.5044,501.990603 C177.6344,501.9826 166.3984,490.7326 166.405397,476.8626 C166.4084,470.8576 168.5644,465.0526 172.4804,460.4996 C173.9464,458.8006 175.6324,457.3046 177.4934,456.0496 C189.0064,448.3076 204.6154,451.3656 212.3584,462.8776 C215.1434,467.0206 216.6314,471.8996 216.6324,476.8906 Z" id="Stroke-45" stroke="#A2A3B9"></path>
                <path d="M46.9723146,265.3701 C46.9673,252.7301 36.9463,242.3681 24.3143,241.9401 L23.5283,241.9401 C10.5813,242.1711 0.2733,252.8521 0.5033,265.7981 C0.7283,278.4201 10.9063,288.5981 23.5283,288.8221 L24.2693,288.8221 C36.9313,288.4251 46.9863,278.0381 46.9723146,265.3701 Z" id="Stroke-47" stroke="#A2A3B9"></path>
                <mask id="mask-2" fill="white">
                    <use xlink:href="#path-1"></use>
                </mask>
                <g id="Clip-50"></g>
                <polygon id="Stroke-49" stroke="#A2A3B9" mask="url(#mask-2)" points="298.952 489.944 340.82 489.944 340.82 463.778 298.952 463.778"></polygon>
                <polygon id="Stroke-51" stroke="#A2A3B9" mask="url(#mask-2)" points="178.406 497.821 204.573 497.821 204.573 455.953 178.406 455.953"></polygon>
                <line x1="178.4654" y1="461.9687" x2="204.6324" y2="461.9687" id="Stroke-52" stroke="#A2A3B9" mask="url(#mask-2)"></line>
                <line x1="178.4654" y1="467.7236" x2="204.6324" y2="467.7236" id="Stroke-53" stroke="#A2A3B9" mask="url(#mask-2)"></line>
                <line x1="178.4654" y1="473.7461" x2="204.6324" y2="473.7461" id="Stroke-54" stroke="#A2A3B9" mask="url(#mask-2)"></line>
                <polygon id="Stroke-55" stroke="#A2A3B9" mask="url(#mask-2)" points="435.132 497.821 461.299 497.821 461.299 455.953 435.132 455.953"></polygon>
                <line x1="435.192" y1="461.9687" x2="461.366" y2="461.9687" id="Stroke-56" stroke="#A2A3B9" mask="url(#mask-2)"></line>
                <line x1="435.192" y1="467.7236" x2="461.366" y2="467.7236" id="Stroke-57" stroke="#A2A3B9" mask="url(#mask-2)"></line>
                <line x1="435.192" y1="473.7461" x2="461.366" y2="473.7461" id="Stroke-58" stroke="#A2A3B9" mask="url(#mask-2)"></line>
                <polygon id="Stroke-59" stroke="#A2A3B9" mask="url(#mask-2)" points="245.936 491.59 264.308 491.59 264.308 462.19 245.936 462.19"></polygon>
                <line x1="245.9733" y1="466.4111" x2="264.3523" y2="466.4111" id="Stroke-60" stroke="#A2A3B9" mask="url(#mask-2)"></line>
                <line x1="245.9733" y1="470.4531" x2="264.3523" y2="470.4531" id="Stroke-61" stroke="#A2A3B9" mask="url(#mask-2)"></line>
                <polygon id="Stroke-62" stroke="#A2A3B9" mask="url(#mask-2)" points="427.315 67.452 469.183 67.452 469.183 41.285 427.315 41.285"></polygon>
                <polygon id="Stroke-63" stroke="#A2A3B9" mask="url(#mask-2)" points="299.508 67.452 341.376 67.452 341.376 41.285 299.508 41.285"></polygon>
                <polygon id="Stroke-64" stroke="#A2A3B9" mask="url(#mask-2)" points="118.13 69.105 136.501 69.105 136.501 39.705 118.13 39.705"></polygon>
                <line x1="118.1666" y1="43.9253" x2="136.5456" y2="43.9253" id="Stroke-65" stroke="#A2A3B9" mask="url(#mask-2)"></line>
                <line x1="118.1666" y1="47.9678" x2="136.5456" y2="47.9678" id="Stroke-66" stroke="#A2A3B9" mask="url(#mask-2)"></line>
                <polygon id="Stroke-67" stroke="#A2A3B9" mask="url(#mask-2)" points="246.493 69.105 264.864 69.105 264.864 39.705 246.493 39.705"></polygon>
                <line x1="246.5299" y1="43.9253" x2="264.9089" y2="43.9253" id="Stroke-68" stroke="#A2A3B9" mask="url(#mask-2)"></line>
                <line x1="246.5299" y1="47.9678" x2="264.9089" y2="47.9678" id="Stroke-69" stroke="#A2A3B9" mask="url(#mask-2)"></line>
                <polygon id="Stroke-70" stroke="#A2A3B9" mask="url(#mask-2)" points="374.856 69.105 393.227 69.105 393.227 39.705 374.856 39.705"></polygon>
                <line x1="374.9" y1="43.9253" x2="393.272" y2="43.9253" id="Stroke-71" stroke="#A2A3B9" mask="url(#mask-2)"></line>
                <line x1="374.9" y1="47.9678" x2="393.272" y2="47.9678" id="Stroke-72" stroke="#A2A3B9" mask="url(#mask-2)"></line>
                <line x1="447.6891" y1="318.6152" x2="543.6851" y2="318.6152" id="Stroke-73" stroke="#A2A3B9" mask="url(#mask-2)"></line>
                <line x1="343.8834" y1="318.6152" x2="439.8794" y2="318.6152" id="Stroke-74" stroke="#A2A3B9" mask="url(#mask-2)"></line>
                <line x1="240.0768" y1="318.6152" x2="336.0728" y2="318.6152" id="Stroke-75" stroke="#A2A3B9" mask="url(#mask-2)"></line>
                <line x1="136.2486" y1="318.6152" x2="232.2596" y2="318.6152" id="Stroke-76" stroke="#A2A3B9" mask="url(#mask-2)"></line>
                <line x1="32.4576" y1="318.6152" x2="128.4536" y2="318.6152" id="Stroke-77" stroke="#A2A3B9" mask="url(#mask-2)"></line>
                <line x1="418.6451" y1="424.5576" x2="496.2701" y2="424.5576" id="Stroke-78" stroke="#A2A3B9" mask="url(#mask-2)"></line>
                <line x1="334.3971" y1="424.5576" x2="410.8571" y2="424.5576" id="Stroke-79" stroke="#A2A3B9" mask="url(#mask-2)"></line>
                <line x1="249.5338" y1="424.5576" x2="326.5798" y2="424.5576" id="Stroke-80" stroke="#A2A3B9" mask="url(#mask-2)"></line>
                <line x1="165.2858" y1="424.5576" x2="241.7828" y2="424.5576" id="Stroke-81" stroke="#A2A3B9" mask="url(#mask-2)"></line>
                <line x1="80.4371" y1="424.6025" x2="157.4981" y2="424.5055" id="Stroke-82" stroke="#A2A3B9" mask="url(#mask-2)"></line>
                <line x1="447.6891" y1="212.6733" x2="544.2421" y2="212.6733" id="Stroke-83" stroke="#A2A3B9" mask="url(#mask-2)"></line>
                <line x1="343.8834" y1="212.6733" x2="439.8794" y2="212.6733" id="Stroke-84" stroke="#A2A3B9" mask="url(#mask-2)"></line>
                <line x1="240.0768" y1="212.6733" x2="336.0728" y2="212.6733" id="Stroke-85" stroke="#A2A3B9" mask="url(#mask-2)"></line>
                <line x1="136.2565" y1="212.6733" x2="232.2595" y2="212.6733" id="Stroke-86" stroke="#A2A3B9" mask="url(#mask-2)"></line>
                <line x1="32.4576" y1="212.6733" x2="128.4536" y2="212.6733" id="Stroke-87" stroke="#A2A3B9" mask="url(#mask-2)"></line>
                <line x1="419.2311" y1="106.7388" x2="496.2481" y2="106.7388" id="Stroke-88" stroke="#A2A3B9" mask="url(#mask-2)"></line>
                <line x1="334.3971" y1="106.7388" x2="411.4141" y2="106.7388" id="Stroke-89" stroke="#A2A3B9" mask="url(#mask-2)"></line>
                <line x1="249.5631" y1="106.7388" x2="326.5801" y2="106.7388" id="Stroke-90" stroke="#A2A3B9" mask="url(#mask-2)"></line>
                <line x1="164.7291" y1="106.7388" x2="241.7461" y2="106.7388" id="Stroke-91" stroke="#A2A3B9" mask="url(#mask-2)"></line>
                <line x1="79.8951" y1="106.7388" x2="156.9191" y2="106.7388" id="Stroke-92" stroke="#A2A3B9" mask="url(#mask-2)"></line>
                <path d="M144.918618,54.4053 C144.9076,64.1173 137.0246,71.9813 127.3136,71.9693137 C117.6006,71.9583 109.7366,64.0753 109.748586,54.3633 C109.7606,44.6513 117.6426,36.7873 127.3546,36.7992863 C133.1666,36.8063 138.6006,39.6843 141.8706,44.4893 C143.8606,47.4123 144.9236,50.8683 144.918618,54.4053 Z" id="Stroke-93" stroke="#A2A3B9" mask="url(#mask-2)"></path>
                <path d="M473.366804,54.4053 C473.3748,40.5273 462.1308,29.2703 448.2528,29.2622957 C434.3748,29.2543 423.1178,40.4983 423.109796,54.3763 C423.1018,68.2543 434.3458,79.5103 448.2228,79.5195492 L448.2528,79.5195492 C462.0608,79.5803 473.3048,68.4363 473.366804,54.6283 L473.366804,54.4053 Z" id="Stroke-94" stroke="#A2A3B9" mask="url(#mask-2)"></path>
                <path d="M273.2819,54.4053 C273.2739,44.7093 265.4079,36.8563 255.7129,36.8632953 C246.0169,36.8713 238.1629,44.7383 238.170894,54.4333 C238.1779,64.1293 246.0459,71.9833 255.7409,71.9753061 C257.1529,71.9743 258.5599,71.8023 259.9319,71.4643 C267.7719,69.5193 273.2779,62.4833 273.2819,54.4053 Z" id="Stroke-95" stroke="#A2A3B9" mask="url(#mask-2)"></path>
                <path d="M384.068,36.8276 C393.776,36.8276 401.646,44.6976 401.646,54.4056 C401.646,64.1136 393.776,71.9836 384.068,71.9836 C374.36,71.9836 366.49,64.1136 366.49,54.4056 C366.49,44.6976 374.36,36.8276 384.068,36.8276 Z" id="Stroke-96" stroke="#A2A3B9" mask="url(#mask-2)"></path>
                <path d="M320.4459,29.292 C334.3159,29.292 345.5589,40.536 345.5589,54.405 C345.5589,68.275 334.3159,79.519 320.4459,79.519 C306.5759,79.519 295.3329,68.275 295.3329,54.405 C295.3329,40.536 306.5759,29.292 320.4459,29.292 Z" id="Stroke-97" stroke="#A2A3B9" mask="url(#mask-2)"></path>
                <path d="M142.4049,137.8374 C154.2709,137.8374 163.8909,147.4574 163.8909,159.3244 C163.8909,171.1914 154.2709,180.8104 142.4049,180.8104 C130.5379,180.8104 120.9189,171.1914 120.9189,159.3244 C120.9189,147.4574 130.5379,137.8374 142.4049,137.8374 Z" id="Stroke-98" stroke="#A2A3B9" mask="url(#mask-2)"></path>
                <path d="M239.5211,128.626 C256.4751,128.626 270.2191,142.37 270.2191,159.324 C270.2191,176.278 256.4751,190.022 239.5211,190.022 C222.5671,190.022 208.8231,176.278 208.8231,159.324 C208.8231,142.37 222.5671,128.626 239.5211,128.626 Z" id="Stroke-99" stroke="#A2A3B9" mask="url(#mask-2)"></path>
                <path d="M552.3336,159.3242 C552.3336,171.2032 542.7036,180.8332 530.8246,180.8332 C518.9456,180.8332 509.3156,171.2032 509.3156,159.3242 C509.3156,147.4452 518.9456,137.8152 530.8246,137.8152 C542.7036,137.8152 552.3336,147.4452 552.3336,159.3242 Z" id="Stroke-100" stroke="#A2A3B9" mask="url(#mask-2)"></path>
                <path d="M433.7379,128.626 C450.6919,128.626 464.4359,142.37 464.4359,159.324 C464.4359,176.278 450.6919,190.022 433.7379,190.022 C416.7839,190.022 403.0399,176.278 403.0399,159.324 C403.0399,142.37 416.7839,128.626 433.7379,128.626 Z" id="Stroke-101" stroke="#A2A3B9" mask="url(#mask-2)"></path>
                <path d="M95.6246,263.0205 C96.9366,244.5725 112.9556,230.6825 131.4036,231.9945 C149.8516,233.3075 163.7416,249.3265 162.4296,267.7735 C161.1166,286.2215 145.0986,300.1125 126.6496,298.7995 C108.2026,297.4875 94.3126,281.4675 95.6246,263.0205 Z" id="Stroke-102" stroke="#A2A3B9" mask="url(#mask-2)"></path>
                <path d="M341.0944,231.8833 C359.5884,231.8833 374.5814,246.8753 374.5814,265.3703 C374.5814,283.8643 359.5884,298.8573 341.0944,298.8573 C322.6004,298.8573 307.6074,283.8643 307.6074,265.3703 C307.6074,246.8753 322.6004,231.8833 341.0944,231.8833 Z" id="Stroke-103" stroke="#A2A3B9" mask="url(#mask-2)"></path>
                <path d="M447.1334,241.9331 C460.0764,241.9331 470.5704,252.4261 470.5704,265.3701 C470.5704,278.3141 460.0764,288.8081 447.1334,288.8081 C434.1894,288.8081 423.6964,278.3141 423.6964,265.3701 C423.6964,252.4261 434.1894,241.9331 447.1334,241.9331 Z" id="Stroke-104" stroke="#A2A3B9" mask="url(#mask-2)"></path>
                <path d="M586.658801,265.9263 C586.6628,247.4363 571.6768,232.4433 553.1858,232.4393 L553.1718,232.4393 C552.4968,232.4393 551.8298,232.4393 551.1698,232.4983 C532.7078,233.6013 518.6368,249.4623 519.7388,267.9243 C520.7478,284.8023 534.1818,298.2823 551.0578,299.3463 C551.7558,299.3913 552.4678,299.4133 553.1718,299.4133 C571.6658,299.4133 586.658801,284.4213 586.658801,265.9263 Z" id="Stroke-105" stroke="#A2A3B9" mask="url(#mask-2)"></path>
                <path d="M272.7262,476.8906 C272.7262,467.1826 264.8562,459.313591 255.1482,459.313591 L255.1402,459.313591 C254.1192,459.3126 253.0992,459.3996 252.0922,459.5726 C242.5272,461.2556 236.1382,470.3746 237.8222,479.9406 C239.5052,489.5046 248.6232,495.8946 258.1892,494.2106 C266.5962,492.7316 272.7262,485.4276 272.7262,476.8906 Z" id="Stroke-106" stroke="#A2A3B9" mask="url(#mask-2)"></path>
                <path d="M345.003503,476.8906 C344.9825,490.7476 333.7325,501.9646 319.8745,501.944627 C306.0175,501.9236 294.8005,490.6726 294.820473,476.8156 C294.8415,462.9576 306.0925,451.7416 319.9495,451.761573 C321.8525,451.7646 323.7475,451.9846 325.6005,452.4146 C336.9705,455.0736 345.0095,465.2146 345.003503,476.8906 Z" id="Stroke-107" stroke="#A2A3B9" mask="url(#mask-2)"></path>
                <polygon id="Stroke-108" stroke="#A2A3B9" mask="url(#mask-2)" points="223.486 397.553 255.467 397.553 255.467 346.377 223.486 346.377"></polygon>
                <line x1="223.5602" y1="353.7266" x2="255.5482" y2="353.7266" id="Stroke-109" stroke="#A2A3B9" mask="url(#mask-2)"></line>
                <line x1="223.5602" y1="360.7656" x2="255.5482" y2="360.7656" id="Stroke-110" stroke="#A2A3B9" mask="url(#mask-2)"></line>
                <line x1="223.5602" y1="368.123" x2="255.5482" y2="368.123" id="Stroke-111" stroke="#A2A3B9" mask="url(#mask-2)"></line>
                <path d="M473.366801,476.8906 C473.3708,490.7646 462.1268,502.0156 448.2528,502.019601 C434.3798,502.0236 423.1288,490.7796 423.124799,476.9066 C423.1208,463.0326 434.3638,451.7826 448.2378,451.777599 L448.2458,451.777599 C462.1158,451.7736 473.3618,463.0136 473.366801,476.8836 L473.366801,476.8906 Z" id="Stroke-112" stroke="#A2A3B9" mask="url(#mask-2)"></path>
                <path d="M142.4049,350.4785 C154.2709,350.4785 163.8909,360.0985 163.8909,371.9645 C163.8909,383.8325 154.2709,393.4515 142.4049,393.4515 C130.5379,393.4515 120.9189,383.8325 120.9189,371.9645 C120.9189,360.0985 130.5379,350.4785 142.4049,350.4785 Z" id="Stroke-113" stroke="#A2A3B9" mask="url(#mask-2)"></path>
                <path d="M239.5211,341.2666 C256.4751,341.2666 270.2191,355.0106 270.2191,371.9646 C270.2191,388.9186 256.4751,402.6626 239.5211,402.6626 C222.5671,402.6626 208.8231,388.9186 208.8231,371.9646 C208.8231,355.0106 222.5671,341.2666 239.5211,341.2666 Z" id="Stroke-114" stroke="#A2A3B9" mask="url(#mask-2)"></path>
                <path d="M75.9948035,371.9648 C76.0028,388.9278 62.2588,402.6848 45.2958,402.693803 C28.3338,402.7008 14.5758,388.9568 14.5677965,371.9948 C14.5598,355.0318 28.3048,341.2748 45.2658,341.266799 L45.2958,341.266799 C62.2458,341.2628 75.9898,354.9998 75.9948035,371.9498 L75.9948035,371.9648 Z" id="Stroke-115" stroke="#A2A3B9" mask="url(#mask-2)"></path>
                <polygon id="Stroke-116" stroke="#A2A3B9" mask="url(#mask-2)" points="313.177 282.859 369.004 282.859 369.004 247.97 313.177 247.97"></polygon>
                <polygon id="Stroke-117" stroke="#A2A3B9" mask="url(#mask-2)" points="101.1 282.859 156.926 282.859 156.926 247.97 101.1 247.97"></polygon>
                <polygon id="Stroke-118" stroke="#A2A3B9" mask="url(#mask-2)" points="535.683 293.279 570.572 293.279 570.572 237.453 535.683 237.453"></polygon>
                <line x1="535.7643" y1="245.4707" x2="570.6603" y2="245.4707" id="Stroke-119" stroke="#A2A3B9" mask="url(#mask-2)"></line>
                <line x1="535.7643" y1="253.147" x2="570.6603" y2="253.147" id="Stroke-120" stroke="#A2A3B9" mask="url(#mask-2)"></line>
                <line x1="535.7643" y1="261.1724" x2="570.6603" y2="261.1724" id="Stroke-121" stroke="#A2A3B9" mask="url(#mask-2)"></line>
                <polygon id="Stroke-122" stroke="#A2A3B9" mask="url(#mask-2)" points="19.708 387.919 70.885 387.919 70.885 355.938 19.708 355.938"></polygon>
                <path d="M336.6295,350.4785 C348.4965,350.4785 358.1155,360.0985 358.1155,371.9645 C358.1155,383.8325 348.4965,393.4515 336.6295,393.4515 C324.7635,393.4515 315.1435,383.8325 315.1435,371.9645 C315.1435,360.0985 324.7635,350.4785 336.6295,350.4785 Z" id="Stroke-123" stroke="#A2A3B9" mask="url(#mask-2)"></path>
                <path d="M160.8209,102.9561 C162.9789,102.9561 164.7289,104.7061 164.7289,106.8651 C164.7289,109.0231 162.9789,110.7731 160.8209,110.7731 C158.6619,110.7731 156.9119,109.0231 156.9119,106.8651 C156.9119,104.7061 158.6619,102.9561 160.8209,102.9561 Z" id="Stroke-124" stroke="#A2A3B9" mask="url(#mask-2)"></path>
                <path d="M245.6549,102.9561 C247.8129,102.9561 249.5629,104.7061 249.5629,106.8651 C249.5629,109.0231 247.8129,110.7731 245.6549,110.7731 C243.4959,110.7731 241.7459,109.0231 241.7459,106.8651 C241.7459,104.7061 243.4959,102.9561 245.6549,102.9561 Z" id="Stroke-125" stroke="#A2A3B9" mask="url(#mask-2)"></path>
                <path d="M330.4889,102.9561 C332.6469,102.9561 334.3969,104.7061 334.3969,106.8651 C334.3969,109.0231 332.6469,110.7731 330.4889,110.7731 C328.3299,110.7731 326.5799,109.0231 326.5799,106.8651 C326.5799,104.7061 328.3299,102.9561 330.4889,102.9561 Z" id="Stroke-126" stroke="#A2A3B9" mask="url(#mask-2)"></path>
                <path d="M415.3219,102.9561 C417.4809,102.9561 419.2309,104.7061 419.2309,106.8651 C419.2309,109.0231 417.4809,110.7731 415.3219,110.7731 C413.1639,110.7731 411.4139,109.0231 411.4139,106.8651 C411.4139,104.7061 413.1639,102.9561 415.3219,102.9561 Z" id="Stroke-127" stroke="#A2A3B9" mask="url(#mask-2)"></path>
                <path d="M132.3619,208.9946 C134.5209,208.9946 136.2709,210.7446 136.2709,212.9036 C136.2709,215.0616 134.5209,216.8116 132.3619,216.8116 C130.2039,216.8116 128.4539,215.0616 128.4539,212.9036 C128.4539,210.7446 130.2039,208.9946 132.3619,208.9946 Z" id="Stroke-128" stroke="#A2A3B9" mask="url(#mask-2)"></path>
                <path d="M236.1686,208.9946 C238.3266,208.9946 240.0766,210.7446 240.0766,212.9036 C240.0766,215.0616 238.3266,216.8116 236.1686,216.8116 C234.0096,216.8116 232.2596,215.0616 232.2596,212.9036 C232.2596,210.7446 234.0096,208.9946 236.1686,208.9946 Z" id="Stroke-129" stroke="#A2A3B9" mask="url(#mask-2)"></path>
                <path d="M339.9742,208.9946 C342.1332,208.9946 343.8832,210.7446 343.8832,212.9036 C343.8832,215.0616 342.1332,216.8116 339.9742,216.8116 C337.8162,216.8116 336.0662,215.0616 336.0662,212.9036 C336.0662,210.7446 337.8162,208.9946 339.9742,208.9946 Z" id="Stroke-130" stroke="#A2A3B9" mask="url(#mask-2)"></path>
                <path d="M443.7877,208.9946 C445.9467,208.9946 447.6967,210.7446 447.6967,212.9036 C447.6967,215.0616 445.9467,216.8116 443.7877,216.8116 C441.6297,216.8116 439.8797,215.0616 439.8797,212.9036 C439.8797,210.7446 441.6297,208.9946 443.7877,208.9946 Z" id="Stroke-131" stroke="#A2A3B9" mask="url(#mask-2)"></path>
                <path d="M500.1559,102.9561 C502.3149,102.9561 504.0649,104.7061 504.0649,106.8651 C504.0649,109.0231 502.3149,110.7731 500.1559,110.7731 C497.9979,110.7731 496.2479,109.0231 496.2479,106.8651 C496.2479,104.7061 497.9979,102.9561 500.1559,102.9561 Z" id="Stroke-132" stroke="#A2A3B9" mask="url(#mask-2)"></path>
                <path d="M552.0592,212.9033 C552.0592,210.7483 550.3122,209.002227 548.1582,209.002227 L548.1502,209.002227 C547.8282,209.0003 547.5062,209.0393 547.1942,209.1203 C545.1002,209.6313 543.8182,211.7423 544.3282,213.8353 C544.7572,215.5943 546.3402,216.8273 548.1502,216.8123 C548.3462,216.8123 548.5422,216.7973 548.7362,216.7673 C550.6472,216.4783 552.0592,214.8353 552.0592,212.9033 Z" id="Stroke-133" stroke="#A2A3B9" mask="url(#mask-2)"></path>
                <path d="M414.7662,421.0791 C416.9242,421.0791 418.6742,422.8291 418.6742,424.9881 C418.6742,427.1461 416.9242,428.8961 414.7662,428.8961 C412.6072,428.8961 410.8572,427.1461 410.8572,424.9881 C410.8572,422.8291 412.6072,421.0791 414.7662,421.0791 Z" id="Stroke-134" stroke="#A2A3B9" mask="url(#mask-2)"></path>
                <path d="M326.5797,424.9727 C326.5797,427.1317 328.3297,428.8817 330.4887,428.8817 C332.6467,428.8817 334.3967,427.1317 334.3967,424.9727 C334.3967,422.8147 332.6467,421.0647 330.4877,421.0647 C328.3317,421.0687 326.5837,422.8167 326.5797,424.9727 Z" id="Stroke-135" stroke="#A2A3B9" mask="url(#mask-2)"></path>
                <path d="M241.7457,424.9727 C241.7457,427.1317 243.4957,428.8817 245.6547,428.8817 C245.9037,428.8797 246.1517,428.8557 246.3957,428.8077 C248.5157,428.3937 249.8967,426.3407 249.4827,424.2227 C249.0697,422.1037 247.0167,420.7217 244.8977,421.1347 C243.0617,421.4937 241.7377,423.1027 241.738699,424.9737 L241.7457,424.9727 Z" id="Stroke-136" stroke="#A2A3B9" mask="url(#mask-2)"></path>
                <path d="M161.3844,421.0791 C163.5434,421.0791 165.2924,422.8291 165.2924,424.9881 C165.2924,427.1461 163.5434,428.8961 161.3844,428.8961 C159.2254,428.8961 157.4764,427.1461 157.4764,424.9881 C157.4764,422.8291 159.2254,421.0791 161.3844,421.0791 Z" id="Stroke-137" stroke="#A2A3B9" mask="url(#mask-2)"></path>
                <path d="M443.7877,315.041 C445.9467,315.041 447.6967,316.791 447.6967,318.949 C447.6967,321.108 445.9467,322.858 443.7877,322.858 C441.6297,322.858 439.8797,321.108 439.8797,318.949 C439.8797,316.791 441.6297,315.041 443.7877,315.041 Z" id="Stroke-138" stroke="#A2A3B9" mask="url(#mask-2)"></path>
                <path d="M339.9742,315.041 C342.1332,315.041 343.8832,316.791 343.8832,318.949 C343.8832,321.108 342.1332,322.858 339.9742,322.858 C337.8162,322.858 336.0662,321.108 336.0662,318.949 C336.0662,316.791 337.8162,315.041 339.9742,315.041 Z" id="Stroke-139" stroke="#A2A3B9" mask="url(#mask-2)"></path>
                <path d="M236.1686,315.041 C238.3266,315.041 240.0766,316.791 240.0766,318.949 C240.0766,321.108 238.3266,322.858 236.1686,322.858 C234.0096,322.858 232.2596,321.108 232.2596,318.949 C232.2596,316.791 234.0096,315.041 236.1686,315.041 Z" id="Stroke-140" stroke="#A2A3B9" mask="url(#mask-2)"></path>
                <path d="M132.3619,315.041 C134.5209,315.041 136.2709,316.791 136.2709,318.949 C136.2709,321.108 134.5209,322.858 132.3619,322.858 C130.2039,322.858 128.4539,321.108 128.4539,318.949 C128.4539,316.791 130.2039,315.041 132.3619,315.041 Z" id="Stroke-141" stroke="#A2A3B9" mask="url(#mask-2)"></path>
                <path d="M496.2477,424.9727 C496.1537,427.1297 497.8257,428.9537 499.9817,429.0477 C502.1397,429.1417 503.9637,427.4697 504.0577,425.3137 C504.0617,425.2007 504.0617,425.0857 504.0577,424.9727 C504.1507,422.8167 502.4787,420.9927 500.3227,420.8987 C498.1657,420.8047 496.3417,422.4767 496.2477,424.6327 C496.2427,424.7457 496.2427,424.8607 496.2477,424.9727 Z" id="Stroke-142" stroke="#A2A3B9" mask="url(#mask-2)"></path>
                <path d="M543.685199,318.9492 C543.6842,320.8732 545.0852,322.5102 546.9862,322.8052 C547.1872,322.8362 547.3902,322.8512 547.5942,322.850247 C549.7522,322.8352 551.4912,321.0732 551.4752,318.9142 C551.4622,317.1452 550.2632,315.6042 548.5512,315.1592 C548.2382,315.0822 547.9162,315.0422 547.5942,315.0412 C545.4352,315.0412 543.685199,316.7912 543.685199,318.9492 Z" id="Stroke-143" stroke="#A2A3B9" mask="url(#mask-2)"></path>
                <path d="M72.0856,106.8647 C72.0856,104.7057 73.8356,102.9557 75.9946,102.9557 C78.1526,102.9557 79.9026,104.7057 79.9026,106.8647 C79.9026,109.0237 78.1526,110.7737 75.9946,110.7737 C73.8356,110.7737 72.0856,109.0237 72.0856,106.8647 Z" id="Stroke-144" stroke="#A2A3B9" mask="url(#mask-2)"></path>
                <path d="M24.6471,212.9033 C24.6471,210.7483 26.3941,209.002269 28.5481,209.002269 L28.5931,209.002269 C28.8421,209.0013 29.0901,209.0243 29.3341,209.0693 C31.4531,209.4873 32.8311,211.5433 32.4121,213.6613 C32.0511,215.4863 30.4541,216.8043 28.5931,216.8123 C28.3271,216.8113 28.0611,216.7843 27.7991,216.7303 C25.9691,216.3723 24.6481,214.7683 24.6471,212.9033 Z" id="Stroke-145" stroke="#A2A3B9" mask="url(#mask-2)"></path>
                <path d="M80.4596,424.9727 C80.4566,426.1647 79.9096,427.2897 78.9766,428.0297 L78.9086,428.0807 C77.1906,429.3877 74.7386,429.0537 73.4326,427.3357 C72.1256,425.6177 72.4586,423.1647 74.1776,421.8587 C75.8956,420.5517 78.3476,420.8857 79.6536,422.6037 C80.1726,423.2857 80.4526,424.1177 80.4516,424.9727 L80.4596,424.9727 Z" id="Stroke-146" stroke="#A2A3B9" mask="url(#mask-2)"></path>
                <path d="M32.4576,318.9492 C32.4556,320.7442 31.2316,322.3062 29.4906,322.7392 C29.1856,322.8142 28.8706,322.8512 28.5566,322.8502 C26.4016,322.8672 24.6416,321.1342 24.6256,318.9792 C24.6106,317.1052 25.9316,315.4852 27.7706,315.1222 C28.0276,315.0652 28.2916,315.0382 28.5566,315.0412 C30.7116,315.0452 32.4576,316.7942 32.4576,318.9492 Z" id="Stroke-147" stroke="#A2A3B9" mask="url(#mask-2)"></path>
                <path d="M148.2711,138.6831 C151.4901,128.8331 155.0631,119.3841 158.9891,110.3361" id="Stroke-148" stroke="#A2A3B9" mask="url(#mask-2)"></path>
                <path d="M132.5846,209.0093 C133.8506,199.2093 135.4396,189.6123 137.3546,180.2173" id="Stroke-149" stroke="#A2A3B9" mask="url(#mask-2)"></path>
                <path d="M130.2486,231.9053 C130.6346,226.8073 131.1036,221.7543 131.6576,216.7453" id="Stroke-150" stroke="#A2A3B9" mask="url(#mask-2)"></path>
                <path d="M131.8434,315.0781 C131.2444,309.7231 130.7284,304.3261 130.2924,298.8871" id="Stroke-151" stroke="#A2A3B9" mask="url(#mask-2)"></path>
                <path d="M137.5768,351.0273 C135.6818,341.8553 134.0928,332.4603 132.8068,322.8423" id="Stroke-152" stroke="#A2A3B9" mask="url(#mask-2)"></path>
                <path d="M159.6861,421.4727 C155.6361,412.2607 151.9431,402.6187 148.6051,392.5467" id="Stroke-153" stroke="#A2A3B9" mask="url(#mask-2)"></path>
                <path d="M424.527,401.2393 C422.02,408.1963 419.33,414.9353 416.457,421.4583" id="Stroke-154" stroke="#A2A3B9" mask="url(#mask-2)"></path>
                <path d="M443.3356,322.8506 C442.4756,329.3286 441.4716,335.7046 440.3246,341.9786" id="Stroke-155" stroke="#A2A3B9" mask="url(#mask-2)"></path>
                <path d="M446.5026,288.7998 C446.0086,297.6998 445.2666,306.4588 444.2776,315.0778" id="Stroke-156" stroke="#A2A3B9" mask="url(#mask-2)"></path>
                <path d="M444.4928,216.812 C445.4078,225.06 446.0878,233.433 446.5318,241.933" id="Stroke-157" stroke="#A2A3B9" mask="url(#mask-2)"></path>
                <path d="M440.5172,189.2734 C441.6842,195.7504 442.6982,202.3274 443.5582,209.0024" id="Stroke-158" stroke="#A2A3B9" mask="url(#mask-2)"></path>
                <path d="M417.1617,110.3135 C419.9057,116.6475 422.4817,123.1845 424.8907,129.9235" id="Stroke-159" stroke="#A2A3B9" mask="url(#mask-2)"></path>
                <path d="M242.6803,128.7964 C243.4223,122.6204 244.2183,116.6124 245.0693,110.7734" id="Stroke-160" stroke="#A2A3B9" mask="url(#mask-2)"></path>
                <path d="M236.2652,209.002 C236.5462,202.574 236.8722,196.22 237.2442,189.941" id="Stroke-161" stroke="#A2A3B9" mask="url(#mask-2)"></path>
                <path d="M235.2633,241.9253 C235.4113,233.4303 235.6423,225.0593 235.9533,216.8123" id="Stroke-162" stroke="#A2A3B9" mask="url(#mask-2)"></path>
                <path d="M235.9752,315.1152 C235.6492,306.4912 235.4022,297.7222 235.2342,288.8072" id="Stroke-163" stroke="#A2A3B9" mask="url(#mask-2)"></path>
                <path d="M237.2438,341.3555 C236.8888,335.2935 236.5608,329.1255 236.2648,322.8505" id="Stroke-164" stroke="#A2A3B9" mask="url(#mask-2)"></path>
                <path d="M245.1647,421.2646 C244.2897,415.2126 243.4617,408.9696 242.6807,402.5366" id="Stroke-165" stroke="#A2A3B9" mask="url(#mask-2)"></path>
                <path d="M334.5377,393.3555 C333.4707,403.0315 332.2887,412.3225 330.9927,421.2275" id="Stroke-166" stroke="#A2A3B9" mask="url(#mask-2)"></path>
                <path d="M339.8561,322.8506 C339.4411,332.2456 338.9281,341.4546 338.3211,350.4786" id="Stroke-167" stroke="#A2A3B9" mask="url(#mask-2)"></path>
                <path d="M340.6793,298.8867 C340.5453,304.3257 340.3773,309.7227 340.1743,315.0777" id="Stroke-168" stroke="#A2A3B9" mask="url(#mask-2)"></path>
                <path d="M340.1901,216.812 C340.3771,221.791 340.5361,226.815 340.6651,231.883" id="Stroke-169" stroke="#A2A3B9" mask="url(#mask-2)"></path>
                <path d="M338.3131,180.8179 C338.9281,189.9929 339.4561,199.4049 339.8781,209.0019" id="Stroke-170" stroke="#A2A3B9" mask="url(#mask-2)"></path>
                <path d="M331.0739,110.729 C332.3279,119.414 333.4849,128.529 334.5229,137.941" id="Stroke-171" stroke="#A2A3B9" mask="url(#mask-2)"></path>
                <polygon id="Stroke-172" stroke="#A2A3B9" mask="url(#mask-2)" points="131.153 389.936 153.604 389.936 153.604 354.001 131.153 354.001"></polygon>
                <line x1="131.1979" y1="359.1563" x2="153.6639" y2="359.1563" id="Stroke-173" stroke="#A2A3B9" mask="url(#mask-2)"></line>
                <line x1="131.1979" y1="364.1035" x2="153.6639" y2="364.1035" id="Stroke-174" stroke="#A2A3B9" mask="url(#mask-2)"></line>
                <polygon id="Stroke-175" stroke="#A2A3B9" mask="url(#mask-2)" points="318.666 383.164 354.601 383.164 354.601 360.714 318.666 360.714"></polygon>
                <polygon id="Stroke-176" stroke="#A2A3B9" mask="url(#mask-2)" points="213.933 175.277 265.109 175.277 265.109 143.296 213.933 143.296"></polygon>
                <polygon id="Stroke-177" stroke="#A2A3B9" mask="url(#mask-2)" points="417.711 184.919 449.692 184.919 449.692 133.743 417.711 133.743"></polygon>
                <line x1="417.777" y1="141.0859" x2="449.766" y2="141.0859" id="Stroke-178" stroke="#A2A3B9" mask="url(#mask-2)"></line>
                <line x1="417.777" y1="148.1245" x2="449.766" y2="148.1245" id="Stroke-179" stroke="#A2A3B9" mask="url(#mask-2)"></line>
                <line x1="417.777" y1="155.4819" x2="449.766" y2="155.4819" id="Stroke-180" stroke="#A2A3B9" mask="url(#mask-2)"></line>
                <polygon id="Stroke-181" stroke="#A2A3B9" mask="url(#mask-2)" points="124.441 170.524 160.376 170.524 160.376 148.073 124.441 148.073"></polygon>
                <polygon id="Stroke-182" stroke="#A2A3B9" mask="url(#mask-2)" points="11.253 284.966 35.751 284.966 35.751 245.768 11.253 245.768"></polygon>
                <line x1="11.3043" y1="251.397" x2="35.8103" y2="251.397" id="Stroke-183" stroke="#A2A3B9" mask="url(#mask-2)"></line>
                <line x1="11.3043" y1="256.7886" x2="35.8103" y2="256.7886" id="Stroke-184" stroke="#A2A3B9" mask="url(#mask-2)"></line>
                <polygon id="Stroke-185" stroke="#A2A3B9" mask="url(#mask-2)" points="427.538 277.653 466.736 277.653 466.736 253.155 427.538 253.155"></polygon>
                <polygon id="Stroke-186" stroke="#A2A3B9" mask="url(#mask-2)" points="512.883 170.524 548.818 170.524 548.818 148.073 512.883 148.073"></polygon>
                <path d="M114.4362,465.5801 C101.4082,454.2671 89.5112,441.7141 78.9162,428.0961" id="Stroke-187" stroke="#A2A3B9" mask="url(#mask-2)"></path>
                <path d="M427.4196,490.9238 C339.6916,545.0708 228.5336,543.4688 142.4046,486.8148" id="Stroke-188" stroke="#A2A3B9" mask="url(#mask-2)"></path>
                <path d="M141.8707,44.4893 C228.1067,-12.5437 339.6307,-14.2457 427.5667,40.1283" id="Stroke-189" stroke="#A2A3B9" mask="url(#mask-2)"></path>
                <path d="M177.5016,456.0498 C172.0286,447.2178 167.0756,438.0748 162.6676,428.6668" id="Stroke-190" stroke="#A2A3B9" mask="url(#mask-2)"></path>
                <path d="M372.2604,490.3975 C347.8434,515.8075 318.9854,530.5005 288.0724,530.5005 C259.1464,530.5005 232.0524,517.6545 208.7114,495.2105" id="Stroke-191" stroke="#A2A3B9" mask="url(#mask-2)"></path>
                <path d="M413.4381,428.6816 C407.8971,440.5746 401.4651,452.0316 394.1991,462.9546" id="Stroke-192" stroke="#A2A3B9" mask="url(#mask-2)"></path>
                <path d="M394.3844,68.6382 C401.7074,79.6822 408.1814,91.2652 413.7494,103.2902" id="Stroke-193" stroke="#A2A3B9" mask="url(#mask-2)"></path>
                <path d="M162.3932,103.29 C166.9142,93.555 172.0162,84.102 177.6712,74.98" id="Stroke-194" stroke="#A2A3B9" mask="url(#mask-2)"></path>
                <path d="M386.6715,472.0078 L397.3495,476.9578 L386.5875,483.2118 L386.6715,472.0078 Z M383.8995,467.6318 L383.7465,488.1058 L403.4135,476.6778 L383.8995,467.6318 Z" id="Fill-195" fill="#CC71C2" mask="url(#mask-2)"></path>
                <path d="M380.9791,483.1699 L370.3111,476.7569 L381.0621,471.9659 L380.9791,483.1699 Z M364.2521,476.3859 L383.7471,488.1059 L383.8991,467.6319 L364.2521,476.3859 Z" id="Fill-196" fill="#88D848" mask="url(#mask-2)"></path>
                <path d="M386.8483,454.2236 L399.5593,475.6736 L386.6323,483.1856 L386.8483,454.2236 Z M383.7463,488.1056 L403.4133,476.6776 L384.0753,444.0426 L384.0853,448.6376 L383.8233,483.8466 L383.7463,488.1056 Z" id="Fill-197" fill="#FF9C92" mask="url(#mask-2)"></path>
                <path d="M380.9791,483.1699 L368.1221,475.4399 L381.1961,454.1079 L380.9791,483.1699 Z M364.2521,476.3859 L383.7471,488.1069 L383.8991,467.6319 L384.0761,444.0429 L364.2521,476.3859 Z" id="Fill-198" fill="#FFE94D" mask="url(#mask-2)"></path>
                <path d="M386.2692,493.5752 L393.4252,489.4222 L386.2262,499.4032 L386.2692,493.5752 Z M403.3972,480.3912 L383.7192,491.8132 L383.5992,507.8372 L383.5992,507.8382 L403.3972,480.3912 Z" id="Fill-199" fill="#5A9DED" mask="url(#mask-2)"></path>
                <path d="M380.861,499.0195 L374.057,489.2795 L380.903,493.3925 L380.861,499.0195 Z M364.225,480.0985 L383.599,507.8365 L383.719,491.8135 L364.225,480.0985 Z" id="Fill-200" fill="#53D3E0" mask="url(#mask-2)"></path>
                <path d="M237.6793,261.5723 L246.7323,265.7683 L237.6083,271.0703 L237.6793,261.5723 Z M235.3293,257.8623 L235.2003,275.2193 L251.8723,265.5313 L235.3293,257.8623 Z" id="Fill-201" fill="#CC71C2" mask="url(#mask-2)"></path>
                <path d="M232.8531,271.0352 L223.8091,265.5982 L232.9241,261.5362 L232.8531,271.0352 Z M218.6731,265.2842 L235.2001,275.2202 L235.3301,257.8622 L218.6731,265.2842 Z" id="Fill-202" fill="#88D848" mask="url(#mask-2)"></path>
                <path d="M237.8297,246.4951 L248.6047,264.6801 L237.6457,271.0491 L237.8297,246.4951 Z M235.1997,275.2201 L251.8727,265.5311 L235.4777,237.8641 L235.4867,241.7591 L235.2647,271.6081 L235.1997,275.2201 Z" id="Fill-203" fill="#FF9C92" mask="url(#mask-2)"></path>
                <path d="M232.8541,271.0352 L221.9531,264.4812 L233.0381,246.3962 L232.8541,271.0352 Z M218.6731,265.2842 L235.2001,275.2202 L235.3301,257.8622 L235.4781,237.8642 L218.6731,265.2842 Z" id="Fill-204" fill="#FFE94D" mask="url(#mask-2)"></path>
                <path d="M237.3385,279.8564 L243.4055,276.3354 L237.3015,284.7974 L237.3385,279.8564 Z M251.8595,268.6794 L235.1765,278.3624 L235.0745,291.9474 L235.0745,291.9484 L251.8595,268.6794 Z" id="Fill-205" fill="#5A9DED" mask="url(#mask-2)"></path>
                <path d="M232.7535,284.4717 L226.9855,276.2137 L232.7885,279.7007 L232.7535,284.4717 Z M218.6495,268.4317 L235.0745,291.9477 L235.1765,278.3627 L218.6495,268.4317 Z" id="Fill-206" fill="#53D3E0" mask="url(#mask-2)"></path>
                <path d="M437.0807,366.5449 L450.8757,373.1629 L436.7787,381.1069 L437.0807,366.5449 Z M433.5537,360.8099 L433.0027,387.4189 L458.7617,372.9029 L433.5537,360.8099 Z" id="Fill-207" fill="#CC71C2" mask="url(#mask-2)"></path>
                <path d="M429.4899,380.9551 L415.7339,372.4351 L429.7919,366.3931 L429.4899,380.9551 Z M407.8659,371.8501 L433.0029,387.4191 L433.5529,360.8091 L407.8659,371.8501 Z" id="Fill-208" fill="#88D848" mask="url(#mask-2)"></path>
                <path d="M437.6168,343.4316 L453.7688,371.5326 L436.8388,381.0736 L437.6168,343.4316 Z M433.0028,387.4186 L458.7628,372.9036 L434.1868,330.1516 L434.1228,336.1236 L433.1758,381.8836 L433.0028,387.4186 Z" id="Fill-209" fill="#FF9C92" mask="url(#mask-2)"></path>
                <path d="M429.4899,380.9561 L412.9109,370.6861 L430.2719,343.1841 L429.4899,380.9561 Z M407.8659,371.8501 L433.0029,387.4191 L433.5529,360.8101 L434.1879,330.1511 L407.8659,371.8501 Z" id="Fill-210" fill="#FFE94D" mask="url(#mask-2)"></path>
                <path d="M436.1871,394.5713 L445.5611,389.2953 L436.0311,402.1453 L436.1871,394.5713 Z M458.6771,377.7293 L432.9031,392.2373 L432.4721,413.0633 L432.4711,413.0623 L432.4711,413.0633 L458.6771,377.7293 Z" id="Fill-211" fill="#5A9DED" mask="url(#mask-2)"></path>
                <path d="M429.0641,401.5547 L420.3881,388.7777 L429.2151,394.2417 L429.0641,401.5547 Z M407.7651,376.6747 L432.4711,413.0627 L432.4721,413.0637 L432.9031,392.2377 L407.7651,376.6747 Z" id="Fill-212" fill="#53D3E0" mask="url(#mask-2)"></path>
                <path d="M50.9987,151.3569 L67.5207,158.4159 L51.3907,168.4549 L50.9987,151.3569 Z M46.5677,144.8089 L47.2827,176.0539 L76.7597,157.7079 L46.5677,144.8089 Z" id="Fill-213" fill="#CC71C2" mask="url(#mask-2)"></path>
                <path d="M42.8317,168.6509 L26.2587,159.3589 L42.4397,151.5529 L42.8317,168.6509 Z M16.9977,159.0749 L47.2827,176.0539 L46.5677,144.8089 L16.9977,159.0749 Z" id="Fill-214" fill="#88D848" mask="url(#mask-2)"></path>
                <path d="M50.4469,124.2153 L70.8329,156.3543 L51.4579,168.4133 L50.4469,124.2153 Z M47.2829,176.0533 L76.7589,157.7073 L45.7439,108.8103 L45.9729,115.8203 L47.2019,169.5503 L47.2829,176.0533 Z" id="Fill-215" fill="#FF9C92" mask="url(#mask-2)"></path>
                <path d="M42.8317,168.6509 L22.8557,157.4519 L41.8167,124.2989 L42.8317,168.6509 Z M16.9967,159.0739 L47.2827,176.0539 L46.5677,144.8089 L45.7447,108.8109 L16.9967,159.0739 Z" id="Fill-216" fill="#FFE94D" mask="url(#mask-2)"></path>
                <path d="M51.3844,184.2822 L62.1114,177.6132 L51.5874,193.1752 L51.3844,184.2822 Z M76.9064,163.3732 L47.4114,181.7112 L47.9714,206.1652 L47.9704,206.1642 L47.9714,206.1652 L76.9064,163.3732 Z" id="Fill-217" fill="#5A9DED" mask="url(#mask-2)"></path>
                <path d="M43.3854,192.8379 L32.5544,178.2919 L43.1884,184.2509 L43.3854,192.8379 Z M17.1264,164.7409 L47.9704,206.1639 L47.9714,206.1649 L47.4114,181.7119 L47.4114,181.7109 L17.1264,164.7409 Z" id="Fill-218" fill="#53D3E0" mask="url(#mask-2)"></path>
                <polygon id="Fill-219" fill="#62688F" mask="url(#mask-2)" points="335.4479 117.4556 334.9859 119.0846 335.4629 166.2296 335.9459 166.7026 357.6989 153.5456"></polygon>
                <polygon id="Fill-220" fill="#8A92B2" mask="url(#mask-2)" points="335.4479 117.4556 313.9309 153.9876 335.9459 166.7026 335.7149 143.8196"></polygon>
                <polygon id="Fill-221" fill="#62688F" mask="url(#mask-2)" points="335.9879 170.8457 335.7209 171.1767 335.8909 187.9707 336.1689 188.7547 357.7539 157.6957"></polygon>
                <polygon id="Fill-222" fill="#8A92B2" mask="url(#mask-2)" points="336.1686 188.7549 335.9876 170.8459 313.9736 158.1379"></polygon>
                <polygon id="Fill-223" fill="#454A75" mask="url(#mask-2)" points="335.9459 166.7021 357.6989 153.5451 335.7149 143.8201"></polygon>
                <polygon id="Fill-224" fill="#62688F" mask="url(#mask-2)" points="313.9313 153.9878 335.9463 166.7018 335.7143 143.8198"></polygon>
                <polygon id="Fill-225" fill="#62688F" mask="url(#mask-2)" points="127.0602 444.501 126.6102 445.981 126.2402 489.049 126.6722 489.488 146.7662 477.844"></polygon>
                <polygon id="Fill-226" fill="#8A92B2" mask="url(#mask-2)" points="127.0602 444.501 106.7832 477.499 126.6722 489.489 126.8522 468.585"></polygon>
                <polygon id="Fill-227" fill="#62688F" mask="url(#mask-2)" points="126.6403 493.2734 126.3913 493.5714 126.2593 508.9134 126.4983 509.6344 146.7443 481.6344"></polygon>
                <polygon id="Fill-228" fill="#8A92B2" mask="url(#mask-2)" points="126.4996 509.6338 126.6406 493.2738 106.7496 481.2898"></polygon>
                <polygon id="Fill-229" fill="#454A75" mask="url(#mask-2)" points="126.6725 489.4883 146.7655 477.8433 126.8525 468.5853"></polygon>
                <polygon id="Fill-230" fill="#62688F" mask="url(#mask-2)" points="106.7828 477.5 126.6728 489.488 126.8518 468.585"></polygon>
                <polygon id="Fill-231" fill="#62688F" mask="url(#mask-2)" points="531.153 339.6572 530.703 341.1372 530.333 384.2052 530.765 384.6452 550.859 373.0002"></polygon>
                <polygon id="Fill-232" fill="#8A92B2" mask="url(#mask-2)" points="531.153 339.6572 510.876 372.6562 530.765 384.6452 530.945 363.7412"></polygon>
                <polygon id="Fill-233" fill="#62688F" mask="url(#mask-2)" points="530.733 388.4307 530.484 388.7287 530.352 404.0707 530.591 404.7907 550.837 376.7917"></polygon>
                <polygon id="Fill-234" fill="#8A92B2" mask="url(#mask-2)" points="530.5924 404.791 530.7334 388.431 510.8424 376.447"></polygon>
                <polygon id="Fill-235" fill="#454A75" mask="url(#mask-2)" points="530.7653 384.6455 550.8583 372.9995 530.9453 363.7415"></polygon>
                <polygon id="Fill-236" fill="#62688F" mask="url(#mask-2)" points="510.8756 372.6563 530.7656 384.6453 530.9446 363.7413"></polygon>
                <polygon id="Fill-237" fill="#62688F" mask="url(#mask-2)" points="194.7311 12.3188 194.1241 14.3198 193.6221 72.5488 194.2081 73.1438 221.3741 57.3998"></polygon>
                <polygon id="Fill-238" fill="#8A92B2" mask="url(#mask-2)" points="194.7311 12.3188 167.3161 56.9338 194.2081 73.1438 194.4511 44.8818"></polygon>
                <polygon id="Fill-239" fill="#62688F" mask="url(#mask-2)" points="194.1637 78.2612 193.8267 78.6642 193.6477 99.4062 193.9737 100.3812 221.3467 62.5252"></polygon>
                <polygon id="Fill-240" fill="#8A92B2" mask="url(#mask-2)" points="193.9733 100.3809 194.1633 78.2609 167.2723 62.0599"></polygon>
                <polygon id="Fill-241" fill="#454A75" mask="url(#mask-2)" points="194.2076 73.1436 221.3736 57.3996 194.4506 44.8816"></polygon>
                <polygon id="Fill-242" fill="#62688F" mask="url(#mask-2)" points="167.316 56.9341 194.208 73.1431 194.451 44.8811"></polygon>
            </g>
        </g>
    </g>
</svg>
