<svg width="131px" height="33px" viewBox="0 0 131 33" version="1.1" xmlns="http://www.w3.org/2000/svg" xmlns:xlink="http://www.w3.org/1999/xlink">
    <defs>
        <polygon id="path-1" points="0 33 131 33 131 0 0 0"></polygon>
    </defs>
    <g id="Page-1" stroke="none" stroke-width="1" fill="none" fill-rule="evenodd">
        <g id="Erigolem-homepage" transform="translate(-93.000000, -44.000000)">
            <g id="BRAND" transform="translate(93.000000, 44.000000)">
                <path d="M19.0880908,9.14442054 L23.106569,9.14442054 L23.106569,11.6624928 L23.1735437,11.6624928 C23.6200413,10.734782 24.255503,10.0169105 25.0823209,9.50887837 C25.9075441,9.00084624 26.8563515,8.74683018 27.928743,8.74683018 C28.1743167,8.74683018 28.4135118,8.76891853 28.647923,8.81309524 C28.8823343,8.85806081 29.1223267,8.91249283 29.3686977,8.97875789 L29.3686977,12.8221314 C29.0338245,12.7345668 28.7045325,12.6619908 28.3800245,12.6067699 C28.0563137,12.5523379 27.7389815,12.5239386 27.4264332,12.5239386 C26.4879909,12.5239386 25.7353236,12.6951234 25.1652418,13.0374928 C24.5959574,13.3806512 24.1606223,13.7719306 23.8592364,14.2136976 C23.5578505,14.6562536 23.3569266,15.0972318 23.257262,15.5389989 C23.1568,15.9815548 23.106569,16.3120912 23.106569,16.5329748 L23.106569,25.048035 L19.0880908,25.048035 L19.0880908,9.14442054 Z" id="Fill-1" fill="#28375B"></path>
                <mask id="mask-2" fill="white">
                    <use xlink:href="#path-1"></use>
                </mask>
                <g id="Clip-4"></g>
                <polygon id="Fill-3" fill="#28375B" mask="url(#mask-2)" points="32.1813136 25.0481928 36.1997918 25.0481928 36.1997918 9.14457831 32.1813136 9.14457831"></polygon>
                <path d="M48.1200814,12.3253012 C47.4056853,12.3253012 46.7582638,12.4412651 46.1778169,12.6731928 C45.5973701,12.9051205 45.1006415,13.2254016 44.6876312,13.6340361 C44.274621,14.0426707 43.9509102,14.5396586 43.7172963,15.125 C43.4828851,15.7103414 43.3648821,16.3564257 43.3648821,17.063253 C43.3648821,17.7038153 43.4828851,18.3002008 43.7172963,18.8524096 C43.9509102,19.4046185 44.2809995,19.8905622 44.7051722,20.310241 C45.1285476,20.7299197 45.6308574,21.061245 46.2113043,21.3042169 C46.7917511,21.5471888 47.4168477,21.6686747 48.0865941,21.6686747 C48.8241125,21.6686747 49.4874803,21.5471888 50.0790896,21.3042169 C50.6706989,21.061245 51.1730087,20.7354418 51.5868163,20.3268072 C51.9990292,19.9181727 52.3179561,19.4267068 52.5412049,18.8524096 C52.7636563,18.2781124 52.8760781,17.6596386 52.8760781,16.996988 C52.8760781,15.6054217 52.4519053,14.4789157 51.6027626,13.6174699 C50.7544172,12.7560241 49.5943208,12.3253012 48.1200814,12.3253012 L48.1200814,12.3253012 Z M56.6928351,9.14457831 L56.6928351,23.623494 C56.6928351,25.0592369 56.5142361,26.3569277 56.157038,27.5165663 C55.7998399,28.6762048 55.2472992,29.6591365 54.4994157,30.4653614 C53.7515322,31.2715863 52.8091034,31.8955823 51.6697373,32.3373494 C50.5311684,32.7791165 49.1805132,33 47.6177717,33 C46.1220047,33 44.7051722,32.812249 43.3648821,32.436747 C42.0253894,32.061245 40.7871559,31.376506 39.6477897,30.3825301 L42.0588767,27.1355422 C42.8625724,27.8644578 43.6997553,28.4277108 44.5712229,28.8253012 C45.4418932,29.2228916 46.4457155,29.4216867 47.5842843,29.4216867 C48.5442541,29.4216867 49.353531,29.2891566 50.012115,29.0240964 C50.6706989,28.7590361 51.1953336,28.3945783 51.5868163,27.9307229 C51.9767043,27.4668675 52.2557653,26.9083477 52.4232019,26.2575301 C52.5906385,25.6051348 52.6751541,24.8825301 52.6751541,24.0873494 L52.6751541,22.9277108 L52.6081795,22.9277108 C52.0269353,23.7008032 51.256727,24.2806225 50.2967572,24.6671687 C49.3367874,25.052926 48.35529,25.246988 47.3498731,25.246988 C46.1443296,25.246988 45.0504105,25.0316265 44.0681158,24.6009036 C43.0858211,24.1701807 42.2438543,23.5903614 41.5398233,22.8614458 C40.8365896,22.1325301 40.2960085,21.2710843 39.9156883,20.2771084 C39.5361653,19.2831325 39.3464039,18.2228916 39.3464039,17.0963855 C39.3464039,15.9257028 39.5258002,14.8323293 39.882201,13.8162651 C40.239399,12.8009897 40.7640337,11.9166667 41.4569023,11.1656627 C42.1481762,10.4146586 42.9805753,9.82379518 43.9509102,9.39307229 C44.9220425,8.9623494 46.0327052,8.74698795 47.2828985,8.74698795 C48.4222646,8.74698795 49.4818991,8.96787149 50.4641938,9.40963855 C51.4464885,9.85140562 52.2278592,10.5582329 52.8091034,11.5301205 L52.8760781,11.5301205 L52.8760781,9.14457831 L56.6928351,9.14457831 Z" id="Fill-5" fill="#28375B" mask="url(#mask-2)"></path>
                <path d="M63.1220017,17.0962278 C63.1220017,17.7147017 63.2280449,18.3118761 63.4401312,18.8853844 C63.6522176,19.4604705 63.9647659,19.9677137 64.3777762,20.4094808 C64.7907864,20.8520367 65.287515,21.2046615 65.8679619,21.4697217 C66.4484087,21.734782 67.1069927,21.8673121 67.8437137,21.8673121 C68.581232,21.8673121 69.2390186,21.734782 69.8194655,21.4697217 C70.3999124,21.2046615 70.8966409,20.8520367 71.3104485,20.4094808 C71.7226615,19.9677137 72.0352098,19.4604705 72.2472961,18.8853844 C72.4593825,18.3118761 72.566223,17.7147017 72.566223,17.0962278 C72.566223,16.4777539 72.4593825,15.8813683 72.2472961,15.3070711 C72.0352098,14.732774 71.7226615,14.2247418 71.3104485,13.7829748 C70.8966409,13.3412077 70.3999124,12.987794 69.8194655,12.7227338 C69.2390186,12.4576736 68.581232,12.3251434 67.8437137,12.3251434 C67.1069927,12.3251434 66.4484087,12.4576736 65.8679619,12.7227338 C65.287515,12.987794 64.7907864,13.3412077 64.3777762,13.7829748 C63.9647659,14.2247418 63.6522176,14.732774 63.4401312,15.3070711 C63.2280449,15.8813683 63.1220017,16.4777539 63.1220017,17.0962278 M59.1035234,17.0962278 C59.1035234,15.8371916 59.3323534,14.6941193 59.7900135,13.6670109 C60.2476735,12.6399025 60.8671889,11.7618904 61.6485597,11.0329748 C62.4299304,10.3040591 63.3564129,9.74080608 64.4288045,9.34321572 C65.4996013,8.94562536 66.6381702,8.74683018 67.8437137,8.74683018 C69.0500545,8.74683018 70.187826,8.94562536 71.2594202,9.34321572 C72.3318117,9.74080608 73.2574969,10.3040591 74.0388677,11.0329748 C74.8202385,11.7618904 75.4397539,12.6399025 75.8974139,13.6670109 C76.3550739,14.6941193 76.5847012,15.8371916 76.5847012,17.0962278 C76.5847012,18.3552639 76.3550739,19.4983362 75.8974139,20.5254446 C75.4397539,21.5525531 74.8202385,22.4305651 74.0388677,23.1594808 C73.2574969,23.8883964 72.3318117,24.4516495 71.2594202,24.8492398 C70.187826,25.2468302 69.0500545,25.4456254 67.8437137,25.4456254 C66.6381702,25.4456254 65.4996013,25.2468302 64.4288045,24.8492398 C63.3564129,24.4516495 62.4299304,23.8883964 61.6485597,23.1594808 C60.8671889,22.4305651 60.2476735,21.5525531 59.7900135,20.5254446 C59.3323534,19.4983362 59.1035234,18.3552639 59.1035234,17.0962278" id="Fill-6" fill="#28375B" mask="url(#mask-2)"></path>
                <polygon id="Fill-7" fill="#28375B" mask="url(#mask-2)" points="79.7325092 25.0481928 83.7509875 25.0481928 83.7509875 0 79.7325092 0"></polygon>
                <path d="M99.1538786,15.5057874 C99.1315537,14.3358936 98.7631932,13.4137048 98.048797,12.7392212 C97.3344009,12.0663153 96.3417411,11.728679 95.0684256,11.728679 C93.8628821,11.728679 92.9084936,12.0710485 92.2052599,12.7557874 C91.5020262,13.4405264 91.0722722,14.3571931 90.9159981,15.5057874 L99.1538786,15.5057874 Z M90.9159981,18.4877151 C91.0499474,19.6804862 91.5187698,20.6081971 92.3232628,21.2708477 C93.1261611,21.9334983 94.0972934,22.2648236 95.2358622,22.2648236 C96.2412791,22.2648236 97.083246,22.0612952 97.7641548,21.6518718 C98.4450636,21.2432372 99.0414568,20.7304719 99.5557264,20.1112091 L102.435636,22.2648236 C101.497991,23.413418 100.448722,24.2314759 99.2878278,24.7166308 C98.1269341,25.2025746 96.9110255,25.4455465 95.6377101,25.4455465 C94.4321666,25.4455465 93.2935977,25.2467513 92.2228008,24.8491609 C91.1504093,24.4515706 90.2239268,23.8883176 89.442556,23.1594019 C88.6611853,22.4304862 88.0408725,21.5524742 87.5840098,20.5253657 C87.1263498,19.4982573 86.8975198,18.355185 86.8975198,17.0961489 C86.8975198,15.8371127 87.1263498,14.6940404 87.5840098,13.666932 C88.0408725,12.6398236 88.6611853,11.7618115 89.442556,11.0328959 C90.2239268,10.3039802 91.1504093,9.74072719 92.2228008,9.34313683 C93.2935977,8.94554647 94.4321666,8.74675129 95.6377101,8.74675129 C96.753954,8.74675129 97.7753173,8.94081325 98.7025971,9.32657057 C99.6282822,9.71311675 100.420815,10.2708477 101.079399,10.9997633 C101.737983,11.728679 102.252253,12.6295683 102.620613,13.7000645 C102.988974,14.7721386 103.172357,16.0027754 103.172357,17.3943417 L103.172357,18.4877151 L90.9159981,18.4877151 Z" id="Fill-8" fill="#28375B" mask="url(#mask-2)"></path>
                <path d="M12.2564385,15.5057874 C12.2341136,14.3358936 11.8657531,13.4137048 11.151357,12.7392212 C10.4369608,12.0663153 9.44430101,11.728679 8.17098557,11.728679 C6.96544208,11.728679 6.01105349,12.0710485 5.30781979,12.7557874 C4.6045861,13.4405264 4.17483217,14.3571931 4.01855801,15.5057874 L12.2564385,15.5057874 Z M4.01855801,18.4877151 C4.15250729,19.6804862 4.62132975,20.6081971 5.42582273,21.2708477 C6.22872107,21.9334983 7.19985332,22.2648236 8.33842216,22.2648236 C9.34383905,22.2648236 10.1858059,22.0612952 10.8667147,21.6518718 C11.5476236,21.2432372 12.1440168,20.7304719 12.6582863,20.1112091 L15.5381958,22.2648236 C14.6005508,23.413418 13.5512815,24.2314759 12.3903878,24.7166308 C11.229494,25.2025746 10.0135854,25.4455465 8.74026999,25.4455465 C7.53472651,25.4455465 6.39615766,25.2467513 5.32536077,24.8491609 C4.25296925,24.4515706 3.32648675,23.8883176 2.54511598,23.1594019 C1.7637452,22.4304862 1.14343248,21.5524742 0.686569771,20.5253657 C0.228909745,19.4982573 7.97317119e-05,18.355185 7.97317119e-05,17.0961489 C7.97317119e-05,15.8371127 0.228909745,14.6940404 0.686569771,13.666932 C1.14343248,12.6398236 1.7637452,11.7618115 2.54511598,11.0328959 C3.32648675,10.3039802 4.25296925,9.74072719 5.32536077,9.34313683 C6.39615766,8.94554647 7.53472651,8.74675129 8.74026999,8.74675129 C9.85651396,8.74675129 10.8778772,8.94081325 11.805157,9.32657057 C12.7308422,9.71311675 13.5233754,10.2708477 14.1819593,10.9997633 C14.8405433,11.728679 15.3548128,12.6295683 15.7231733,13.7000645 C16.0915338,14.7721386 16.2749168,16.0027754 16.2749168,17.3943417 L16.2749168,18.4877151 L4.01855801,18.4877151 Z" id="Fill-9" fill="#28375B" mask="url(#mask-2)"></path>
                <path d="M106.085993,9.14442054 L109.90275,9.14442054 L109.90275,11.6293603 L109.969724,11.6293603 C110.326923,10.8791452 110.901788,10.2109725 111.694321,9.62484223 C112.486855,9.04028973 113.552868,8.74683018 114.893158,8.74683018 C117.415072,8.74683018 119.090235,9.7297619 119.916256,11.6956254 C120.495905,10.68035 121.221464,9.93407917 122.092134,9.45917958 C122.963602,8.98427998 124.001708,8.74683018 125.206455,8.74683018 C126.278049,8.74683018 127.183004,8.92432587 127.919725,9.27695066 C128.656446,9.63036431 129.253636,10.1163081 129.711296,10.734782 C130.168159,11.3532559 130.497451,12.0766495 130.698375,12.9049627 C130.899299,13.733276 130.999761,14.6231211 130.999761,15.5721314 L130.999761,25.048035 L126.981283,25.048035 L126.981283,16.0359868 C126.981283,15.5508319 126.936633,15.0806655 126.847333,14.6278543 C126.758831,14.175043 126.60176,13.7782415 126.378511,13.4350832 C126.155262,13.0927137 125.853876,12.8221314 125.474353,12.6233362 C125.09483,12.424541 124.60448,12.3251434 124.001708,12.3251434 C123.376612,12.3251434 122.846396,12.4411073 122.411061,12.673035 C121.975726,12.9049627 121.61773,13.2149885 121.339467,13.6007458 C121.059608,13.987292 120.858684,14.4290591 120.736695,14.926047 C120.613908,15.423035 120.552515,15.925545 120.552515,16.4335772 L120.552515,25.048035 L116.534036,25.048035 L116.534036,15.5721314 C116.534036,14.5781555 116.321153,13.7884968 115.897777,13.2031555 C115.472807,12.618603 114.770371,12.3251434 113.787279,12.3251434 C113.117532,12.3251434 112.553829,12.4355852 112.096169,12.6564687 C111.638509,12.8773523 111.258986,13.175545 110.9576,13.551047 C110.656215,13.9265491 110.439344,14.3572719 110.305395,14.8432157 C110.170648,15.3291595 110.103674,15.8371916 110.103674,16.3673121 L110.103674,25.048035 L106.085993,25.048035 L106.085993,9.14442054 Z" id="Fill-10" fill="#28375B" mask="url(#mask-2)"></path>
            </g>
        </g>
    </g>
</svg>
