<svg width="18px" height="13px" viewBox="0 0 18 13" version="1.1" xmlns="http://www.w3.org/2000/svg" xmlns:xlink="http://www.w3.org/1999/xlink">
    <g id="Page-1" stroke="none" stroke-width="1" fill="none" fill-rule="evenodd">
        <g id="Erigolem-Service-Running-Vissible-Pass" transform="translate(-688.000000, -593.000000)" fill="#404B63">
            <g id="Group-5" transform="translate(688.000000, 593.000000)">
                <path d="M9,3.34980455 C7.2252,3.34980455 5.7858,4.75735 5.7858,6.49344091 C5.7858,8.23012273 7.2252,9.63766818 9,9.63766818 C10.7754,9.63766818 12.2142,8.23012273 12.2142,6.49344091 C12.2142,4.75735 10.7754,3.34980455 9,3.34980455 M9,4.53162273 C10.1106,4.53162273 11.0142,5.41207727 11.0142,6.49344091 C11.0142,7.57539545 10.1106,8.45585 9,8.45585 C7.8894,8.45585 6.9858,7.57539545 6.9858,6.49344091 C6.9858,5.41207727 7.8894,4.53162273 9,4.53162273" id="Fill-1"></path>
                <path d="M9,0 C2.5716,0 0,6.48168182 0,6.48168182 C0,6.48168182 2.5716,13 9,13 C15.4284,13 18,6.48168182 18,6.48168182 C18,6.48168182 15.4284,0 9,0 M9,1.18181818 C13.677,1.18181818 16.026,5.14386364 16.6866,6.48345455 C16.0254,7.83190909 13.6764,11.8181818 9,11.8181818 C4.3218,11.8181818 1.9728,7.82954545 1.3134,6.48345455 C1.9752,5.14090909 4.3248,1.18181818 9,1.18181818" id="Fill-3"></path>
            </g>
        </g>
    </g>
</svg>
