<svg width="18px" height="15px" viewBox="0 0 18 15" version="1.1" xmlns="http://www.w3.org/2000/svg" xmlns:xlink="http://www.w3.org/1999/xlink">
    <g id="Page-1" stroke="none" stroke-width="1" fill="none" fill-rule="evenodd">
        <g id="Erigolem-Service-Running" transform="translate(-688.000000, -592.000000)" fill="#404B63">
            <g id="Group-7" transform="translate(688.000000, 592.000000)">
                <path d="M9,4.35403714 C7.224,4.35403714 5.784,5.75877469 5.784,7.49403872 C5.784,9.22930275 7.224,10.6340403 9,10.6340403 C10.776,10.6340403 12.216,9.22930275 12.216,7.49403872 C12.216,5.75877469 10.776,4.35403714 9,4.35403714" id="Fill-1"></path>
                <path d="M9,1.00751554 C2.5716,1.00751554 0,7.481703 0,7.481703 C0,7.481703 2.5716,13.9924845 9,13.9924845 C15.4284,13.9924845 18,7.481703 18,7.481703 C18,7.481703 15.4284,1.00751554 9,1.00751554 M9,2.18796726 C13.677,2.18796726 16.026,6.14543165 16.6866,7.48347368 C16.0254,8.83036909 13.6764,12.8120327 9,12.8120327 C4.3218,12.8120327 1.9728,8.82800818 1.3134,7.48347368 C1.9752,6.14248052 4.3248,2.18796726 9,2.18796726" id="Fill-3"></path>
                <polygon id="Fill-5" points="2.2242 15 1.3758 14.1654206 15.7758 0 16.6242 0.834579366"></polygon>
            </g>
        </g>
    </g>
</svg>
